<?xml version="1.0" encoding="utf-8"?>
<!-- Generator: Adobe Illustrator 26.0.3, SVG Export Plug-In . SVG Version: 6.00 Build 0)  -->
<svg version="1.1" xmlns="http://www.w3.org/2000/svg" xmlns:xlink="http://www.w3.org/1999/xlink" x="0px" y="0px"
	 viewBox="0 0 1920 391" style="enable-background:new 0 0 1920 391;" xml:space="preserve">
<style type="text/css">
	.st0{fill:#597F2F;}
</style>
<g id="Layer_2">
</g>
<g id="Layer_1">
	<path class="st0" d="M442.9,300.9c-13.8-2.1-27.5-4.3-41-6.1c0.5,0,0.9-0.1,1.4-0.1c-3.2-2.4-5.3-4-7.5-5.6
		c0.2-0.4,0.4-0.9,0.5-1.3h16.8c-10.9-6.2-21.3-12-31.7-17.9c0.2-0.5,0.5-1,0.7-1.5c3,0.3,6,0.5,9.9,0.9
		c-7.3-5.6-13.6-10.5-19.8-15.4c9.6,1.8,18.8,3.5,27.9,5.2c0-0.3,0-0.7,0-1c-8.6-5.8-17.1-11.6-25.7-17.4c0.3-0.4,0.5-0.7,0.8-1.1
		c5.5,0.9,11,1.8,16.4,2.6c-9.1-5.9-17.6-12-24.1-21.1c5,0.9,9.7,1.7,15.5,2.8c-6.6-6.3-12-11.4-17.4-16.5c3.1-0.2,5.7,0.7,8.3,1.3
		c2.7,0.6,5.4,0.8,7.7,1.2c-6.9-7.2-13.8-14.4-21.5-22.5c5.8,0.7,9.9,1.2,14.6,1.8c-6-5.7-11.4-10.7-16.8-15.8
		c0.2-0.4,0.5-0.7,0.7-1.1c2.1,0.6,4.3,1.2,5.5,1.5c-3.3-5.5-6.8-11.3-10.3-17.1c0.5-0.4,1-0.7,1.4-1.1c1.4,0.6,2.7,1.3,3.9,1.9
		c-2.9-7.1-5.7-14.1-8.6-21.4c-2.9,7.2-5.6,14-8.4,21c1.2-0.4,2.4-0.7,3.6-1.1c0.5,0.4,0.9,0.8,1.4,1.2c-3.5,5.7-7,11.4-10.4,16.9
		c1.6-0.5,3.6-1.1,5.6-1.7c0.3,0.4,0.5,0.8,0.8,1.2c-5.3,5-10.6,10.1-16.8,15.9c5.1-0.7,9.1-1.3,14.7-2c-7.6,8.6-14.3,16-20,22.4
		c3.2-0.7,8.6-1.8,15.2-3.3c-6.3,6.1-11.7,11.3-18.3,17.6c6-1.1,10.5-1.9,15-2.7c0.3,0.5,0.6,0.9,0.9,1.4
		c-8.2,6.5-16.3,13-24.5,19.5c5.4-0.8,10.9-1.7,16.4-2.5c0.2,0.4,0.5,0.8,0.7,1.2c-6.9,4.6-13.7,9.2-20.6,13.9c-3.5-2-7-4-10.5-6
		c0.2-0.5,0.5-1,0.7-1.5c3,0.3,6,0.5,9.9,0.9c-7.3-5.6-13.6-10.5-19.8-15.4c9.6,1.8,18.8,3.5,27.9,5.2c0-0.3,0-0.7,0-1
		c-8.6-5.8-17.1-11.6-25.7-17.4c0.3-0.4,0.5-0.7,0.8-1.1c5.5,0.9,11,1.8,16.4,2.6c-9.1-5.9-17.6-12-24.1-21.1
		c5,0.9,9.7,1.7,15.5,2.8c-6.6-6.3-12-11.4-17.4-16.5c3.1-0.2,5.7,0.7,8.3,1.3c2.7,0.6,5.4,0.8,7.7,1.2
		c-6.9-7.2-13.8-14.4-21.5-22.5c5.8,0.7,9.9,1.2,14.6,1.8c-6-5.7-11.4-10.7-16.8-15.8c0.2-0.4,0.5-0.7,0.7-1.1
		c2.1,0.6,4.3,1.2,5.5,1.6c-3.3-5.5-6.8-11.3-10.3-17.1c0.5-0.4,1-0.7,1.4-1.1c1.4,0.6,2.7,1.3,3.9,1.9c-2.9-7.1-5.7-14.1-8.6-21.4
		c-2.9,7.2-5.6,14-8.4,21c1.2-0.4,2.4-0.7,3.6-1.1c0.5,0.4,0.9,0.8,1.4,1.2c-3.5,5.7-7,11.4-10.4,16.9c1.6-0.5,3.6-1.1,5.6-1.7
		c0.3,0.4,0.5,0.8,0.8,1.2c-5.3,5-10.6,10.1-16.8,15.9c5.1-0.7,9.1-1.3,14.7-2c-7.6,8.6-14.3,16-20,22.4c3.2-0.7,8.6-1.8,15.2-3.3
		c-5,4.8-9.4,9.1-14.3,13.7c-8.5-4.8-16.8-9.5-25.1-14.2c0.2-0.5,0.5-1,0.7-1.5c3,0.3,6,0.5,9.9,0.9c-7.3-5.6-13.6-10.5-19.8-15.4
		c9.6,1.8,18.8,3.5,27.9,5.2c0-0.3,0-0.7,0-1c-8.6-5.8-17.1-11.6-25.7-17.4c0.3-0.4,0.5-0.7,0.8-1.1c5.5,0.9,11,1.8,16.4,2.6
		c-9.1-5.9-17.6-12-24.1-21.1c5,0.9,9.7,1.7,15.5,2.8c-6.6-6.3-12-11.4-17.4-16.5c3.1-0.2,5.7,0.7,8.3,1.3c2.7,0.6,5.4,0.8,7.7,1.2
		c-6.9-7.2-13.8-14.4-21.5-22.5c5.8,0.7,9.9,1.2,14.6,1.8c-6-5.7-11.4-10.7-16.8-15.8c0.2-0.4,0.5-0.7,0.7-1.1
		c2.1,0.6,4.3,1.2,5.5,1.5c-3.3-5.5-6.8-11.3-10.3-17.1c0.5-0.4,1-0.7,1.4-1.1c1.4,0.6,2.7,1.3,3.9,1.9c-2.9-7.1-5.7-14.1-8.6-21.4
		c-2.9,7.2-5.6,14-8.4,21c1.2-0.4,2.4-0.7,3.6-1.1c0.5,0.4,0.9,0.8,1.4,1.2c-3.5,5.7-7,11.4-10.4,16.9c1.6-0.5,3.6-1.1,5.6-1.7
		c0.3,0.4,0.5,0.8,0.8,1.2c-5.3,5-10.6,10.1-16.8,15.9c5.1-0.7,9.1-1.3,14.7-2c-7.6,8.6-14.3,16-20,22.4c3.2-0.7,8.6-1.8,15.2-3.3
		c-6.3,6.1-11.7,11.3-18.3,17.6c6-1.1,10.5-1.9,15-2.7c0.3,0.5,0.6,0.9,0.9,1.4c-7.9,6.3-15.8,12.5-23.7,18.8
		c-7.2-4.9-14.5-9.8-21.7-14.7c0.3-0.4,0.5-0.7,0.8-1.1c5.5,0.9,11,1.8,16.4,2.6c-9.1-5.9-17.6-12-24.1-21.1c5,0.9,9.7,1.7,15.5,2.8
		c-6.6-6.3-12-11.4-17.4-16.5c3.1-0.2,5.7,0.7,8.3,1.3c2.7,0.6,5.4,0.8,7.7,1.2c-6.9-7.2-13.8-14.4-21.5-22.5
		c5.8,0.7,9.9,1.2,14.6,1.8c-6-5.7-11.4-10.7-16.8-15.8c0.2-0.4,0.5-0.7,0.7-1.1c2.1,0.6,4.3,1.2,5.5,1.5
		c-3.3-5.5-6.8-11.3-10.3-17.1c0.5-0.4,1-0.7,1.4-1.1c1.4,0.6,2.7,1.3,3.9,1.9c-2.9-7.1-5.7-14.1-8.6-21.4c-2.9,7.2-5.6,14-8.4,21
		c1.2-0.4,2.4-0.7,3.6-1.1c0.5,0.4,0.9,0.8,1.4,1.2c-3.5,5.7-7,11.4-10.4,16.9c1.6-0.5,3.6-1.1,5.6-1.7c0.3,0.4,0.5,0.8,0.8,1.2
		c-5.3,5-10.6,10.1-16.8,15.9c5.1-0.7,9.1-1.3,14.7-2c-7.6,8.6-14.3,16-20,22.4c3.2-0.7,8.6-1.8,15.2-3.3
		c-6.3,6.1-11.7,11.3-18.3,17.6c6-1.1,10.5-1.9,15-2.7c0.3,0.5,0.6,0.9,0.9,1.4c-8.2,6.5-16.3,13-24.5,19.5
		c5.4-0.8,10.9-1.7,16.4-2.5c0.2,0.4,0.5,0.8,0.7,1.2c-8.5,5.7-16.9,11.4-25.4,17.1c0.1,0.4,0.2,0.8,0.3,1.2
		c9.2-1.8,18.3-3.6,28.1-5.5c-7.1,5.4-13.9,10.5-21.1,16c3.7-0.5,7.1-0.9,10.4-1.3c0.2,0.6,0.5,1.2,0.7,1.8
		c-10.4,5.8-20.8,11.6-32.2,18h17.2c0.1,0.4,0.1,0.8,0.2,1.2c-1.8,1.3-3.7,2.6-5.5,3.8c0.1,0.4,0.3,0.8,0.4,1.2
		c7.6-2.3,15.1-4.5,23.1-6.9c-6.3,9.4-15,14.9-25.5,19.9c3.3,0.2,5.4,0.4,7.5,0.5c0.1,0.4,0.1,0.9,0.2,1.3
		c-8.4,5.1-16.8,10.1-26.2,15.8H36c-2.2,2.1-3.6,3.4-6,5.6c5.6-1.4,10-2.5,15-3.7c-1,1.4-1.6,2.3-2.5,3.7c4.7-1.5,8.8-2.8,14.1-4.4
		c-4.8,6.2-10.4,10.8-16.3,14.4c-16.9,0-34,0.3-51.3,0.3l8.6,329.7h1920.2l2.2-343.7c-26.7,3.9-41,28.4-69.7,31.4
		c-3.8,0.4-7.7,0.4-11.7,0.3c-2.9-3-5.7-6.4-8.3-10.4c5.4,1.9,9.5,3.4,14.3,5.1c-0.9-1.8-1.4-2.7-2.3-4.4c4.8,1.5,9.1,2.8,13.3,4.1
		c0.2-0.4,0.4-0.8,0.5-1.2c-1.6-1.4-3.2-2.7-4.8-4c0.2-0.5,0.4-0.9,0.6-1.4h12.5c-9.2-6.8-17.5-13-25.8-19.2
		c0.2-0.6,0.5-1.2,0.7-1.8h6.2c-5.7-4.3-10.8-8.2-15.9-12.1c0.2-0.4,0.3-0.9,0.5-1.3c4.9-0.6,9.8-1.2,15.6-1.9
		c-3.2-2.9-5.3-4.9-7.5-6.8c0.2-0.5,0.4-1.1,0.5-1.6h16.8c-10.9-7.5-21.3-14.6-31.7-21.7c0.2-0.6,0.5-1.2,0.7-1.8
		c3,0.3,6,0.7,9.9,1.1c-7.3-6.8-13.6-12.8-19.8-18.6c9.6,2.2,18.8,4.2,27.9,6.3c0-0.4,0-0.8,0-1.3c-8.6-7-17.1-14-25.7-21.1
		c0.3-0.4,0.5-0.9,0.8-1.3c5.5,1.1,11,2.1,16.4,3.2c-9.1-7.2-17.6-14.6-24.1-25.6c5,1.1,9.7,2.1,15.5,3.4
		c-6.6-7.6-12-13.8-17.4-20.1c3.1-0.2,5.7,0.9,8.3,1.6c2.7,0.7,5.4,1,7.7,1.4c-6.9-8.8-13.8-17.4-21.5-27.2
		c5.8,0.9,9.9,1.5,14.6,2.2c-6-6.9-11.4-13-16.8-19.2c0.2-0.4,0.5-0.9,0.7-1.3c2.1,0.7,4.3,1.5,5.5,1.9c-2.9-5.8-5.9-12-9-18.2
		c-1.4-1.5-2.7-3.2-3.8-5c-0.1-0.1-0.2-0.3-0.2-0.4c-2.9,3.9-6.2,7.5-9.4,11.1c-2.8,3.1-5.5,6.1-8.6,8.9c-0.3,0.3-0.7,0.6-1.1,0.9
		c-0.2,1.4-0.4,2.9-0.8,4.3c3.6-3.1,7-6.6,10.1-10.3c-1.5,3-3.1,6-4.6,9c1.6-0.6,3.6-1.4,5.6-2.1c0.3,0.5,0.5,0.9,0.8,1.4
		c-5.3,6.1-10.6,12.2-16.8,19.2c5.1-0.9,9.1-1.5,14.7-2.5c-7.6,10.4-14.3,19.4-20,27.2c3.2-0.8,8.6-2.2,15.2-3.9
		c-6.3,7.3-11.7,13.7-18.3,21.3c6-1.3,10.5-2.3,15-3.3c0.3,0.6,0.6,1.1,0.9,1.7c-8.2,7.9-16.3,15.7-24.5,23.6c5.4-1,10.9-2,16.4-3.1
		c0.2,0.5,0.5,0.9,0.7,1.4c-8.5,6.9-16.9,13.8-25.4,20.7l0.3,1.5c9.2-2.2,18.3-4.3,28.1-6.7c-7.1,6.5-13.9,12.8-21.1,19.4
		c3.7-0.6,7.1-1.1,10.4-1.6c0.2,0.7,0.5,1.5,0.7,2.2c-6.3,4.3-12.7,8.6-19.3,13.1v-50c-4,2.8-8.6,4.6-13.5,5.2
		c0.6,0.6,1.3,1.2,1.9,1.8v50.9c-0.5,0.3-0.9,0.6-1.4,0.9h1.4v37.2c-3.2,2.4-6.6,4.8-10,7.3h10v4.4c-0.6,0.7-1.3,1.5-2.1,2.3
		c0.7-0.2,1.4-0.4,2.1-0.6v7.1c-7.3-6.1-14.1-12.7-19.5-21.8c5,1.1,9.7,2.1,15.5,3.4c-6.6-7.6-12-13.8-17.4-20.1
		c3.1-0.2,5.7,0.9,8.3,1.6c2.7,0.7,5.4,1,7.7,1.4c-6.9-8.8-13.8-17.4-21.5-27.2c5.8,0.9,9.9,1.5,14.6,2.2c-6-6.9-11.4-13-16.8-19.2
		c0.2-0.4,0.5-0.9,0.7-1.3c2.1,0.7,4.3,1.5,5.5,1.9c-3.3-6.6-6.8-13.7-10.3-20.8c0.5-0.4,1-0.9,1.4-1.3c1.4,0.8,2.7,1.6,3.9,2.2
		c-2.9-8.6-5.7-17.1-8.6-25.9c-2.9,8.7-5.6,17-8.4,25.5c1.2-0.4,2.4-0.9,3.6-1.4c0.5,0.5,0.9,1,1.4,1.4c-3.5,6.9-7,13.8-10.4,20.5
		c1.6-0.6,3.6-1.4,5.6-2.1c0.3,0.5,0.5,0.9,0.8,1.4c-5.3,6.1-10.6,12.2-16.8,19.2c5.1-0.9,9.1-1.5,14.7-2.5
		c-7.6,10.4-14.3,19.5-20,27.2c3.2-0.8,8.6-2.2,15.2-3.9c-6.3,7.3-11.7,13.7-18.3,21.3c6-1.3,10.5-2.3,15-3.3
		c0.3,0.6,0.6,1.1,0.9,1.7c-5.1,4.9-10.2,9.8-15.3,14.7c-5.8-4.8-11.6-9.6-17.5-14.3c0.3-0.4,0.5-0.9,0.8-1.3
		c5.5,1.1,11,2.1,16.4,3.2c-9.1-7.2-17.6-14.6-24.1-25.6c5,1.1,9.7,2.1,15.5,3.4c-6.6-7.6-12-13.8-17.4-20.1
		c3.1-0.2,5.7,0.9,8.3,1.6c2.7,0.7,5.4,1,7.7,1.4c-6.9-8.8-13.8-17.4-21.5-27.2c5.8,0.9,9.9,1.5,14.6,2.2c-6-6.9-11.4-13-16.8-19.2
		c0.2-0.4,0.5-0.9,0.7-1.3c2.1,0.7,4.3,1.5,5.5,1.9c-3.3-6.6-6.8-13.7-10.3-20.8c0.5-0.4,1-0.9,1.4-1.3c1.4,0.8,2.7,1.6,3.9,2.2
		c-2.9-8.6-5.7-17.1-8.6-25.9c-2.9,8.7-5.6,17-8.4,25.5c1.2-0.4,2.4-0.9,3.6-1.4c0.5,0.5,0.9,1,1.4,1.4c-3.5,6.9-7,13.8-10.4,20.5
		c1.6-0.6,3.6-1.4,5.6-2.1c0.3,0.5,0.5,0.9,0.8,1.4c-5.3,6.1-10.6,12.2-16.8,19.2c5.1-0.9,9.1-1.5,14.7-2.5
		c-7.6,10.4-14.3,19.4-20,27.2c3.2-0.8,8.6-2.2,15.2-3.9c-3.2,3.8-6.3,7.3-9.3,10.8c-6.3-4.3-12.5-8.6-18.8-12.8
		c0.2-0.6,0.5-1.2,0.7-1.8c3,0.3,6,0.7,9.9,1.1c-7.3-6.8-13.6-12.8-19.8-18.6c9.6,2.2,18.8,4.3,27.9,6.3c0-0.4,0-0.8,0-1.3
		c-8.6-7-17.1-14-25.7-21.1c0.3-0.4,0.5-0.9,0.8-1.3c5.5,1.1,11,2.1,16.4,3.2c-9.1-7.2-17.6-14.6-24.1-25.6c5,1.1,9.7,2.1,15.5,3.4
		c-6.6-7.6-12-13.8-17.4-20.1c3.1-0.2,5.7,0.9,8.3,1.6c2.7,0.7,5.4,1,7.7,1.4c-6.9-8.8-13.8-17.4-21.5-27.2
		c5.8,0.9,9.9,1.5,14.6,2.2c-6-6.9-11.4-13-16.8-19.2c0.2-0.4,0.5-0.9,0.7-1.3c2.1,0.7,4.3,1.5,5.5,1.9c-3.3-6.6-6.8-13.7-10.3-20.8
		c0.5-0.4,1-0.9,1.4-1.3c1.4,0.8,2.7,1.6,3.9,2.2c-2.9-8.6-5.7-17.1-8.6-25.9c-2.9,8.7-5.6,17-8.4,25.5c1.2-0.4,2.4-0.9,3.6-1.4
		c0.5,0.5,0.9,1,1.4,1.4c-3.5,6.9-7,13.8-10.4,20.5c1.6-0.6,3.6-1.4,5.6-2.1c0.3,0.5,0.5,0.9,0.8,1.4c-5.3,6.1-10.6,12.2-16.8,19.2
		c5.1-0.9,9.1-1.5,14.7-2.5c-7.6,10.4-14.3,19.4-20,27.2c3.2-0.8,8.6-2.2,15.2-3.9c-6.3,7.3-11.7,13.7-18.3,21.3
		c6-1.3,10.5-2.3,15-3.3c0.3,0.6,0.6,1.1,0.9,1.7c-8.2,7.9-16.3,15.7-24.5,23.6c5.4-1,10.9-2,16.4-3.1c0.2,0.5,0.5,0.9,0.7,1.4
		c-7.9,6.5-15.8,12.9-23.7,19.4c-6.7-4.5-13.3-9-20-13.5c0.3-0.4,0.5-0.7,0.8-1.1c5.5,0.9,11,1.8,16.4,2.6
		c-9.1-5.9-17.6-12-24.1-21.1c5,0.9,9.7,1.7,15.5,2.8c-6.6-6.3-12-11.4-17.4-16.5c3.1-0.2,5.7,0.7,8.3,1.3c2.7,0.6,5.4,0.8,7.7,1.2
		c-6.9-7.2-13.8-14.4-21.5-22.5c5.8,0.7,9.9,1.2,14.6,1.8c-6-5.7-11.4-10.7-16.8-15.8c0.2-0.4,0.5-0.7,0.7-1.1
		c2.1,0.6,4.3,1.2,5.5,1.5c-3.3-5.5-6.8-11.3-10.3-17.1c0.5-0.4,1-0.7,1.4-1.1c1.4,0.6,2.7,1.3,3.9,1.9c-2.9-7.1-5.7-14.1-8.6-21.4
		c-2.9,7.2-5.6,14-8.4,21c1.2-0.4,2.4-0.7,3.6-1.1c0.5,0.4,0.9,0.8,1.4,1.2c-3.5,5.7-7,11.4-10.4,16.9c1.6-0.5,3.6-1.1,5.6-1.7
		c0.3,0.4,0.5,0.8,0.8,1.2c-5.3,5-10.6,10.1-16.8,15.9c5.1-0.7,9.1-1.3,14.7-2c-7.6,8.6-14.3,16-20,22.4c3.2-0.7,8.6-1.8,15.2-3.3
		c-6.3,6.1-11.7,11.3-18.3,17.6c6-1.1,10.5-1.9,15-2.7c0.3,0.5,0.6,0.9,0.9,1.4c-8.2,6.5-16.3,13-24.5,19.5
		c5.4-0.8,10.9-1.7,16.4-2.5c0.2,0.4,0.5,0.8,0.7,1.2c-8.5,5.7-16.9,11.4-25.4,17.1l0.3,1.2c9.2-1.8,18.3-3.6,28.1-5.5
		c-7.1,5.4-13.9,10.5-21.1,16c3.7-0.5,7.1-0.9,10.4-1.3c0.2,0.6,0.5,1.2,0.7,1.8c-10.4,5.8-20.8,11.6-32.2,18h17.2
		c0.1,0.4,0.1,0.8,0.2,1.2c-1.8,1.3-3.7,2.6-5.5,3.8c0.1,0.4,0.3,0.8,0.4,1.2c7.6-2.3,15.1-4.5,23.1-6.9c-6.3,9.4-15,14.9-25.5,19.9
		c3.3,0.2,5.4,0.4,7.5,0.5c0.1,0.4,0.1,0.9,0.2,1.3c-8.4,5.1-16.8,10.1-26.2,15.8h13.9c-2.2,2.1-3.6,3.4-6,5.6
		c5.6-1.4,10-2.5,15-3.7c-1,1.4-1.6,2.3-2.5,3.7c4.7-1.5,8.8-2.8,14.1-4.4c-2.6,3.3-5.4,6.2-8.4,8.7c-7.9,0.1-15.8,0.1-23.7,0.1
		c-31.2,0-65.8-3.7-94.4,7.4c-13.1,5.1-23.8,14.2-38.2,17.1c-5.9,1.2-12.1,1.6-18.5,1.8c-1.5-0.9-3-1.9-4.5-2.8
		c0.1-0.2,0.2-0.5,0.3-0.7h2.9c-2.7-1.7-5.1-3.2-7.6-4.7c0.1-0.2,0.1-0.3,0.2-0.5c2.3-0.2,4.6-0.5,7.4-0.8c-1.5-1.1-2.5-1.9-3.6-2.7
		c0.1-0.2,0.2-0.4,0.3-0.6h8c-5.2-2.9-10.1-5.7-15.1-8.5c0.1-0.2,0.2-0.5,0.3-0.7c1.4,0.1,2.9,0.3,4.7,0.4c-3.4-2.7-6.4-5-9.4-7.3
		c4.6,0.9,8.9,1.7,13.3,2.5c0-0.2,0-0.3,0-0.5c-4.1-2.8-8.1-5.5-12.2-8.3c0.1-0.2,0.3-0.3,0.4-0.5c2.6,0.4,5.2,0.8,7.8,1.2
		c-4.3-2.8-8.4-5.7-11.4-10c2.4,0.4,4.6,0.8,7.4,1.3c-3.1-3-5.7-5.4-8.3-7.9c1.5-0.1,2.7,0.3,3.9,0.6c1.3,0.3,2.6,0.4,3.6,0.6
		c-3.3-3.4-6.5-6.8-10.2-10.7c2.8,0.3,4.7,0.6,6.9,0.9c-2.9-2.7-5.4-5.1-8-7.5c0.1-0.2,0.2-0.3,0.3-0.5c1,0.3,2,0.6,2.6,0.7
		c-1.6-2.6-3.2-5.4-4.9-8.1c0.2-0.2,0.5-0.3,0.7-0.5c0.6,0.3,1.3,0.6,1.9,0.9c-1.4-3.4-2.7-6.7-4.1-10.2c-1.4,3.4-2.6,6.7-4,10
		c0.6-0.2,1.1-0.4,1.7-0.5c0.2,0.2,0.4,0.4,0.7,0.6c-1.7,2.7-3.3,5.4-4.9,8c0.8-0.2,1.7-0.5,2.7-0.8c0.1,0.2,0.2,0.4,0.4,0.6
		c-2.5,2.4-5.1,4.8-8,7.5c2.4-0.3,4.3-0.6,7-1c-3.6,4.1-6.8,7.6-9.5,10.7c1.5-0.3,4.1-0.9,7.2-1.5c-3,2.9-5.6,5.4-8.7,8.4
		c2.8-0.5,5-0.9,7.1-1.3c0.1,0.2,0.3,0.5,0.4,0.7c-3.9,3.1-7.7,6.2-11.6,9.3c2.6-0.4,5.2-0.8,7.8-1.2c0.1,0.2,0.2,0.4,0.3,0.5
		c-4,2.7-8.1,5.4-12.1,8.1c0,0.2,0.1,0.4,0.1,0.6c4.3-0.9,8.7-1.7,13.3-2.6c-3.4,2.6-6.6,5-10,7.6c1.8-0.2,3.4-0.4,4.9-0.6
		c0.1,0.3,0.2,0.6,0.4,0.9c-4.9,2.8-9.9,5.5-15.3,8.6h8.2c0,0.2,0.1,0.4,0.1,0.6c-0.9,0.6-1.8,1.2-2.6,1.8c0.1,0.2,0.1,0.4,0.2,0.5
		c3.6-1.1,7.2-2.2,11-3.3c-3,4.5-7.1,7.1-12.1,9.4c1.6,0.1,2.6,0.2,3.6,0.2c0,0.2,0.1,0.4,0.1,0.6c-1.1,0.7-2.2,1.3-3.3,2
		c-4.9-0.2-9.9-0.4-14.8-0.7c-8-4.9-15.4-9.5-22.8-14c0.2-0.5,0.5-1,0.7-1.5h6.2c-5.7-3.5-10.8-6.8-15.9-10c0.2-0.4,0.3-0.7,0.5-1.1
		c4.9-0.5,9.8-1,15.6-1.6c-3.2-2.4-5.3-4-7.5-5.6c0.2-0.4,0.4-0.9,0.5-1.3h16.8c-10.9-6.2-21.3-12-31.7-17.9c0.2-0.5,0.5-1,0.7-1.5
		c3,0.3,6,0.5,9.9,0.9c-7.3-5.6-13.6-10.5-19.8-15.4c9.6,1.8,18.8,3.5,27.9,5.2c0-0.3,0-0.7,0-1c-8.6-5.8-17.1-11.6-25.7-17.4
		c0.3-0.4,0.5-0.7,0.8-1.1c5.5,0.9,11,1.8,16.4,2.6c-9.1-5.9-17.6-12-24.1-21.1c5,0.9,9.7,1.7,15.5,2.8c-6.6-6.3-12-11.4-17.4-16.5
		c3.1-0.2,5.7,0.7,8.3,1.3c2.7,0.6,5.4,0.8,7.7,1.2c-6.9-7.2-13.8-14.4-21.5-22.5c5.8,0.7,9.9,1.2,14.6,1.8
		c-6-5.7-11.4-10.7-16.8-15.8c0.2-0.4,0.5-0.7,0.7-1.1c2.1,0.6,4.3,1.2,5.5,1.6c-3.3-5.5-6.8-11.3-10.3-17.1c0.5-0.4,1-0.7,1.4-1.1
		c1.4,0.6,2.7,1.3,3.9,1.9c-2.9-7.1-5.7-14.1-8.6-21.4c-2.9,7.2-5.6,14-8.4,21c1.2-0.4,2.4-0.7,3.6-1.1c0.5,0.4,0.9,0.8,1.4,1.2
		c-3.5,5.7-7,11.4-10.4,16.9c1.6-0.5,3.6-1.1,5.6-1.7c0.3,0.4,0.5,0.8,0.8,1.2c-5.3,5-10.6,10.1-16.8,15.9c5.1-0.7,9.1-1.3,14.7-2
		c-7.6,8.6-14.3,16-20,22.4c3.2-0.7,8.6-1.8,15.2-3.3c-6.3,6.1-11.7,11.3-18.3,17.6c6-1.1,10.5-1.9,15-2.7c0.3,0.5,0.6,0.9,0.9,1.4
		c-8.2,6.5-16.3,13-24.5,19.5c5.4-0.8,10.9-1.7,16.4-2.5c0.2,0.4,0.5,0.8,0.7,1.2c-5.6,3.7-11.1,7.5-16.7,11.2
		c-4-3.8-7.8-7.4-11.6-10.9c0.2-0.4,0.5-0.7,0.7-1.1c2.1,0.6,4.3,1.2,5.5,1.5c-3.3-5.5-6.8-11.3-10.3-17.1c0.5-0.4,1-0.7,1.4-1.1
		c1.4,0.6,2.7,1.3,3.9,1.9c-2.9-7.1-5.7-14.1-8.6-21.4c-2.9,7.2-5.6,14-8.4,21c1.2-0.4,2.4-0.7,3.6-1.1c0.5,0.4,0.9,0.8,1.4,1.2
		c-3.5,5.7-7,11.4-10.4,16.9c1.6-0.5,3.6-1.1,5.6-1.7c0.3,0.4,0.5,0.8,0.8,1.2c-5,4.7-10,9.4-15.7,14.8
		c-8.9-5.8-17.2-11.8-23.5-20.7c5,0.9,9.7,1.7,15.5,2.8c-6.6-6.3-12-11.4-17.4-16.5c3.1-0.2,5.7,0.7,8.3,1.3
		c2.7,0.6,5.4,0.8,7.7,1.2c-6.9-7.2-13.8-14.4-21.5-22.5c5.8,0.7,9.9,1.2,14.6,1.8c-6-5.7-11.4-10.7-16.8-15.8
		c0.2-0.4,0.5-0.7,0.7-1.1c2.1,0.6,4.3,1.2,5.5,1.6c-3.3-5.5-6.8-11.3-10.3-17.1c0.5-0.4,1-0.7,1.4-1.1c1.4,0.6,2.7,1.3,3.9,1.9
		c-2.9-7.1-5.7-14.1-8.6-21.4c-2.9,7.2-5.6,14-8.4,21c1.2-0.4,2.4-0.7,3.6-1.1c0.5,0.4,0.9,0.8,1.4,1.2c-3.5,5.7-7,11.4-10.4,16.9
		c1.6-0.5,3.6-1.1,5.6-1.7c0.3,0.4,0.5,0.8,0.8,1.2c-5.3,5-10.6,10.1-16.8,15.9c5.1-0.7,9.1-1.3,14.7-2c-7.6,8.6-14.3,16-20,22.4
		c3.2-0.7,8.6-1.8,15.2-3.3c-6.3,6.1-11.7,11.3-18.3,17.6c6-1.1,10.5-1.9,15-2.7c0.3,0.5,0.6,0.9,0.9,1.4
		c-8.2,6.5-16.3,13-24.5,19.5c5.4-0.8,10.9-1.7,16.4-2.5c0.2,0.4,0.5,0.8,0.7,1.2c-8.5,5.7-16.9,11.4-25.4,17.1l0.3,1.2
		c9.2-1.8,18.3-3.6,28.1-5.5c-7.1,5.4-13.9,10.5-21.1,16c3.7-0.5,7.1-0.9,10.4-1.3c0.2,0.6,0.5,1.2,0.7,1.8
		c-10.4,5.8-20.8,11.6-32.2,18h17.2c0.1,0.4,0.1,0.8,0.2,1.2c-1.8,1.3-3.7,2.6-5.5,3.8c0.1,0.4,0.3,0.8,0.4,1.2
		c7.6-2.3,15.1-4.5,23.1-6.9c-6.3,9.4-15,14.9-25.5,19.9c3.3,0.2,5.4,0.4,7.5,0.5c0.1,0.4,0.1,0.9,0.2,1.3
		c-8.4,5.1-16.8,10.1-26.2,15.8h13.9c-0.7,0.6-1.3,1.2-1.8,1.7c-7.8,0.2-15.8,0.1-23.8-0.4c-0.4-0.3-0.9-0.5-1.3-0.8
		c0.1-0.2,0.2-0.4,0.2-0.5c2.4-0.2,4.8-0.5,7.6-0.8c-1.5-1.2-2.6-2-3.6-2.7c0.1-0.2,0.2-0.4,0.3-0.6h8.2c-5.3-3-10.4-5.9-15.4-8.7
		c0.1-0.2,0.2-0.5,0.4-0.7c1.5,0.1,2.9,0.3,4.8,0.4c-3.5-2.7-6.6-5.1-9.6-7.5c4.7,0.9,9.2,1.7,13.6,2.5c0-0.2,0-0.3,0-0.5
		c-4.2-2.8-8.3-5.6-12.5-8.5c0.1-0.2,0.3-0.4,0.4-0.5c2.7,0.4,5.3,0.9,8,1.3c-4.4-2.9-8.6-5.9-11.7-10.3c2.5,0.4,4.7,0.8,7.6,1.3
		c-3.2-3.1-5.8-5.6-8.5-8.1c1.5-0.1,2.8,0.3,4,0.6c1.3,0.3,2.6,0.4,3.7,0.6c-3.4-3.5-6.7-7-10.5-11c2.8,0.4,4.8,0.6,7.1,0.9
		c-2.9-2.8-5.6-5.2-8.2-7.7c0.1-0.2,0.2-0.3,0.3-0.5c1,0.3,2.1,0.6,2.7,0.8c-1.6-2.7-3.3-5.5-5-8.4c0.2-0.2,0.5-0.4,0.7-0.5
		c0.7,0.3,1.3,0.6,1.9,0.9c-1.4-3.5-2.8-6.9-4.2-10.4c-1.4,3.5-2.7,6.8-4.1,10.2c0.6-0.2,1.2-0.4,1.8-0.5c0.2,0.2,0.4,0.4,0.7,0.6
		c-1.7,2.8-3.4,5.5-5.1,8.2c0.8-0.2,1.7-0.5,2.7-0.9c0.1,0.2,0.3,0.4,0.4,0.6c-2.6,2.5-5.2,4.9-8.2,7.7c2.5-0.3,4.5-0.6,7.2-1
		c-3.7,4.2-7,7.8-9.8,10.9c1.6-0.3,4.2-0.9,7.4-1.6c-3.1,3-5.7,5.5-8.9,8.6c2.9-0.5,5.1-0.9,7.3-1.3c0.2,0.2,0.3,0.5,0.5,0.7
		c-4,3.2-7.9,6.3-11.9,9.5c2.6-0.4,5.3-0.8,8-1.2c0.1,0.2,0.2,0.4,0.4,0.6c-4.1,2.8-8.3,5.6-12.4,8.3l0.1,0.6
		c4.5-0.9,8.9-1.7,13.7-2.7c-3.5,2.6-6.8,5.1-10.3,7.8c1.8-0.2,3.4-0.4,5-0.7c0.1,0.3,0.2,0.6,0.4,0.9c-5.1,2.8-10.1,5.7-15.7,8.8
		h8.4c0,0.2,0.1,0.4,0.1,0.6c-0.3,0.2-0.5,0.4-0.8,0.5c-24.1-3.3-47.8-7.5-69.3-10.2c-1.7-0.2-3.3-0.4-5-0.7
		c-6.7-6.9-13.3-13.8-20.7-21.6c5.8,0.7,9.9,1.2,14.6,1.8c-6-5.7-11.4-10.7-16.8-15.8c0.2-0.4,0.5-0.7,0.7-1.1
		c2.1,0.6,4.3,1.2,5.5,1.5c-3.3-5.5-6.8-11.3-10.3-17.1c0.5-0.4,1-0.7,1.4-1.1c1.4,0.6,2.7,1.3,3.9,1.9c-2.9-7.1-5.7-14.1-8.6-21.4
		c-2.9,7.2-5.6,14-8.4,21c1.2-0.4,2.4-0.7,3.6-1.1c0.5,0.4,0.9,0.8,1.4,1.2c-3.5,5.7-7,11.4-10.4,16.9c1.6-0.5,3.6-1.1,5.6-1.7
		c0.3,0.4,0.5,0.8,0.8,1.2c-5.1,4.8-10.2,9.7-16.1,15.2c-3.8-2.6-7.5-5.1-11.3-7.7c0.3-0.4,0.5-0.7,0.8-1.1c5.5,0.9,11,1.8,16.4,2.6
		c-9.1-5.9-17.6-12-24.1-21.1c5,0.9,9.7,1.7,15.5,2.8c-6.6-6.3-12-11.4-17.4-16.5c3.1-0.2,5.7,0.7,8.3,1.3c2.7,0.6,5.4,0.8,7.7,1.2
		c-6.9-7.2-13.8-14.4-21.5-22.5c5.8,0.7,9.9,1.2,14.6,1.8c-6-5.7-11.4-10.7-16.8-15.8c0.2-0.4,0.5-0.7,0.7-1.1
		c2.1,0.6,4.3,1.2,5.5,1.5c-3.3-5.5-6.8-11.3-10.3-17.1c0.5-0.4,1-0.7,1.4-1.1c1.4,0.6,2.7,1.3,3.9,1.9c-2.9-7.1-5.7-14.1-8.6-21.4
		c-2.9,7.2-5.6,14-8.4,21c1.2-0.4,2.4-0.7,3.6-1.1c0.5,0.4,0.9,0.8,1.4,1.2c-3.5,5.7-7,11.4-10.4,16.9c1.6-0.5,3.6-1.1,5.6-1.7
		c0.3,0.4,0.5,0.8,0.8,1.2c-5.3,5-10.6,10.1-16.8,15.9c5.1-0.7,9.1-1.3,14.7-2c-7.6,8.6-14.3,16-20,22.4c3.2-0.7,8.6-1.8,15.2-3.3
		c-3.5,3.4-6.8,6.5-10.1,9.7c-6.1-3.4-12.1-6.8-18.1-10.2c0.2-0.5,0.5-1,0.7-1.5c3,0.3,6,0.5,9.9,0.9c-7.3-5.6-13.6-10.5-19.8-15.4
		c9.6,1.8,18.8,3.5,27.9,5.2c0-0.3,0-0.7,0-1c-8.6-5.8-17.1-11.6-25.7-17.4c0.3-0.4,0.5-0.7,0.8-1.1c5.5,0.9,11,1.8,16.4,2.6
		c-9.1-5.9-17.6-12-24.1-21.1c5,0.9,9.7,1.7,15.5,2.8c-6.6-6.3-12-11.4-17.4-16.5c3.1-0.2,5.7,0.7,8.3,1.3c2.7,0.6,5.4,0.8,7.7,1.2
		c-6.9-7.2-13.8-14.4-21.5-22.5c5.8,0.7,9.9,1.2,14.6,1.8c-6-5.7-11.4-10.7-16.8-15.8c0.2-0.4,0.5-0.7,0.7-1.1
		c2.1,0.6,4.3,1.2,5.5,1.5c-3.3-5.5-6.8-11.3-10.3-17.1c0.5-0.4,1-0.7,1.4-1.1c1.4,0.6,2.7,1.3,3.9,1.9c-2.9-7.1-5.7-14.1-8.6-21.4
		c-2.9,7.2-5.6,14-8.4,21c1.2-0.4,2.4-0.7,3.6-1.1c0.5,0.4,0.9,0.8,1.4,1.2c-3.5,5.7-7,11.4-10.4,16.9c1.6-0.5,3.6-1.1,5.6-1.7
		c0.3,0.4,0.5,0.8,0.8,1.2c-5.3,5-10.6,10.1-16.8,15.9c5.1-0.7,9.1-1.3,14.7-2c-7.6,8.6-14.3,16-20,22.4c3.2-0.7,8.6-1.8,15.2-3.3
		c-6.3,6.1-11.7,11.3-18.3,17.6c6-1.1,10.5-1.9,15-2.7c0.3,0.5,0.6,0.9,0.9,1.4c-8.2,6.5-16.3,13-24.5,19.5
		c5.4-0.8,10.9-1.7,16.4-2.5c0.2,0.4,0.5,0.8,0.7,1.2c-8.5,5.7-16.9,11.4-25.4,17.1c0.1,0.4,0.2,0.8,0.3,1.2
		c9.2-1.8,18.3-3.6,28.1-5.5c-7.1,5.4-13.9,10.5-21.1,16c3.7-0.5,7.1-0.9,10.4-1.3c0.2,0.6,0.5,1.2,0.7,1.8c-6.5,3.6-13,7.2-19.7,11
		c-4.1-4.3-8.4-8.7-13-13.5c5.8,0.7,9.9,1.2,14.6,1.8c-6-5.7-11.4-10.7-16.8-15.8c0.2-0.4,0.5-0.7,0.7-1.1c2.1,0.6,4.3,1.2,5.5,1.5
		c-3.3-5.5-6.8-11.3-10.3-17.1c0.5-0.4,1-0.7,1.4-1.1c1.4,0.6,2.7,1.3,3.9,1.9c-2.9-7.1-5.7-14.1-8.6-21.4c-2.9,7.2-5.6,14-8.4,21
		c1.2-0.4,2.4-0.7,3.6-1.1c0.5,0.4,0.9,0.8,1.4,1.2c-3.5,5.7-7,11.4-10.4,16.9c1.6-0.5,3.6-1.1,5.6-1.7c0.3,0.4,0.5,0.8,0.8,1.2
		c-5.3,5-10.6,10.1-16.8,15.9c5.1-0.7,9.1-1.3,14.7-2c-7.6,8.6-14.3,16-20,22.4c3.2-0.7,8.6-1.8,15.2-3.3
		c-6.3,6.1-11.7,11.3-18.3,17.6c6-1.1,10.5-1.9,15-2.7c0.3,0.5,0.6,0.9,0.9,1.4c-8.2,6.5-16.3,13-24.5,19.5
		c5.4-0.8,10.9-1.7,16.4-2.5c0.2,0.4,0.5,0.8,0.7,1.2c-8.5,5.7-16.9,11.4-25.4,17.1c0.1,0.4,0.2,0.8,0.3,1.2
		c9.2-1.8,18.3-3.6,28.1-5.5c-7.1,5.4-13.9,10.5-21.1,16c3.7-0.5,7.1-0.9,10.4-1.3c0.2,0.6,0.5,1.2,0.7,1.8c0,0,0,0-0.1,0
		c-19.8-0.4-40.1-2.9-60.5-5.9 M143.6,160.1c0-0.3,0-0.7,0-1c-1.1-0.7-2.2-1.5-3.3-2.2c4.9-0.8,9.9-1.5,14.9-2.3
		c0.2,0.4,0.5,0.8,0.7,1.2c-7,4.7-14,9.5-21.1,14.2c-7-5.5-13.2-10.2-19.3-15C125.3,156.7,134.5,158.4,143.6,160.1z M139.3,190.1
		c0.2-0.4,0.4-0.9,0.5-1.3h2.3c-0.9,0.5-1.8,1-2.6,1.5C139.4,190.2,139.4,190.2,139.3,190.1z M143.2,212.1c-1.1-0.7-2.3-1.4-3.4-2.1
		c0.2-0.5,0.5-1,0.7-1.5h6.2c-1.7-1.1-3.3-2.1-4.9-3.1c3.4-1,6.9-2.1,10.4-3.1C149.6,206.1,146.6,209.3,143.2,212.1z M146.9,183.3
		c0.4-0.1,0.9-0.1,1.3-0.2l0.5,1.2C148.1,184,147.5,183.7,146.9,183.3z M142.6,180.9c-6-3.4-11.8-6.7-17.7-10c0.2-0.5,0.5-1,0.7-1.5
		c2.7,0.2,5.5,0.5,8.9,0.8c-1.3,0.9-2.6,1.7-3.9,2.6c0.1,0.4,0.2,0.8,0.3,1.2c9.2-1.8,18.3-3.6,28.1-5.5
		C153.4,172.7,148.1,176.8,142.6,180.9z M217.5,241.1c3.9,1.2,7.2,2.1,10.5,3.1c-1.5,1.1-3,2.3-4.5,3.4
		C221.4,245.6,219.4,243.5,217.5,241.1z M232.2,271.8c-1.1-0.3-2.2-0.6-3.3-0.9c0,0,0-0.1-0.1-0.1c0.3-0.3,0.5-0.7,0.8-1
		c1.2,0.3,2.4,0.6,3.6,0.9C232.9,271.1,232.6,271.4,232.2,271.8z M228.5,251.7c-1.5-1.1-2.9-2.3-4.3-3.6c3-0.4,5.8-0.8,8.6-1.1
		c0.2,0.6,0.5,1.2,0.7,1.8C231.8,249.8,230.2,250.8,228.5,251.7z M229.5,241.7c0.5,0.1,0.9,0.2,1.4,0.4c-0.3,0.2-0.5,0.4-0.8,0.6
		C229.9,242.3,229.7,242,229.5,241.7z M230.3,226.5c-1.5-0.9-3-1.8-4.5-2.8c0.2-0.5,0.5-1,0.7-1.5h6.2c-1.2-0.7-2.3-1.5-3.5-2.2
		c3.5-0.5,7.1-1.1,10.7-1.7c0.2,0.4,0.5,0.8,0.7,1.2C237.1,221.9,233.7,224.2,230.3,226.5z M241.9,233.7c-0.4-0.2-0.8-0.5-1.1-0.7
		c0.9-0.2,1.8-0.4,2.8-0.5C243,232.8,242.4,233.2,241.9,233.7z M226.6,218.5c-3.4-2.1-6.6-4.1-9.9-6.2c0.2-0.4,0.3-0.7,0.5-1.1
		c4.9-0.5,9.8-1,15.6-1.6c-3.2-2.4-5.3-4-7.5-5.6c0.2-0.4,0.4-0.9,0.5-1.3h6.3c0,0-0.1,0.1-0.1,0.1c0.3,0,0.5-0.1,0.8-0.1h9.8
		c-0.8-0.5-1.6-0.9-2.4-1.4c2.4-0.4,4.6-0.8,6.8-1.2c0.3,0.5,0.6,0.9,0.9,1.4C240.8,207.1,233.7,212.8,226.6,218.5z M310.4,266.5h2
		c-0.7,0.5-1.4,1.1-2.1,1.6c-0.1-0.1-0.3-0.2-0.4-0.3C310,267.4,310.2,267,310.4,266.5z M304.7,278.3c-1.1-0.7-2.3-1.4-3.4-2.1
		c0.2-0.4,0.3-0.7,0.5-1.1c3.4-0.4,6.9-0.7,10.7-1.1C309.8,275.4,307.3,276.9,304.7,278.3z M311.5,269.1c2.5-0.3,4.9-0.6,7.2-0.9
		c0.2,0.6,0.5,1.2,0.7,1.8c-1.3,0.7-2.6,1.5-3.9,2.2C314.1,271,312.8,270,311.5,269.1z M321.5,289c-1.2-0.1-2.3-0.2-3.5-0.3
		c1.6-0.5,3.1-0.9,4.7-1.4C322.3,287.8,321.9,288.4,321.5,289z M318.7,261.8c-2.7-1.5-5.3-3-8-4.5c6.1-1.2,12.3-2.4,18.8-3.7
		C325.8,256.3,322.3,259,318.7,261.8z M558.4,258.7c3.5,0.6,6.8,1.2,10.5,1.9c-2,1.2-4.1,2.2-6.3,3.3
		C561.1,262.3,559.7,260.6,558.4,258.7z M566.3,294.1c-1.1-0.9-2.3-1.8-3.4-2.6c1.8,0.3,3.6,0.7,5.4,1
		C567.7,293,567,293.6,566.3,294.1z M566.5,267.9c-1.1-1-2.1-2.1-3.2-3.1c2.1,0.1,3.8,0.3,5.4,0.4c0.1,0.4,0.1,0.9,0.2,1.3
		C568.1,266.9,567.3,267.4,566.5,267.9z M575.6,285.3c-0.5-0.3-1-0.7-1.5-1c1-0.3,2-0.6,3.1-1C576.7,284,576.2,284.7,575.6,285.3z
		 M571.4,259.1c-5.3-5-9.8-9.3-14.3-13.6h4.5c1.1,0.2,2.1,0.5,3.2,0.8c1.2,0.3,2.4,0.5,3.6,0.6c-1.7,1.2-3.5,2.4-5.2,3.6
		c0.1,0.4,0.3,0.8,0.4,1.2c7.6-2.3,15.1-4.5,23.1-6.9C582.6,250.9,577.4,255.4,571.4,259.1z M654.9,257c-1.2-0.8-2.4-1.5-3.6-2.3
		c0.2-0.4,0.3-0.7,0.5-1.1c2.8-0.3,5.5-0.6,8.4-0.9C658.4,254.2,656.7,255.6,654.9,257z M663.5,262.4c-0.7-0.4-1.3-0.8-1.9-1.2
		c0.6-0.1,1.1-0.2,1.7-0.3c0.2,0.4,0.5,0.8,0.7,1.2C663.8,262.2,663.6,262.3,663.5,262.4z M664.2,249.7c-1.6-1.2-2.9-2.2-4.3-3.2
		c0.2-0.4,0.4-0.9,0.5-1.3h9.5C668,246.6,666.1,248.1,664.2,249.7z M726.2,280.5c-4.2-0.8-8.3-1.5-12.5-2.2
		c-1.4-1.1-2.7-2.1-4.1-3.2c6.3,1.2,12.4,2.3,18.4,3.4C727.4,279.2,726.8,279.9,726.2,280.5z M731.2,275c-2.4-1.6-4.8-3.3-7.3-4.9
		c4.5-0.6,8.3-1.1,13.3-1.8C735.2,270.6,733.2,272.8,731.2,275z M859,301.8c-1.5-0.2-3-0.4-4.4-0.6c2.1-0.6,4.2-1.3,6.4-1.9
		C860.3,300.2,859.7,301,859,301.8z M1013.5,251.6c-1.8-1-3.5-2-5.3-3c0.2-0.5,0.5-1,0.7-1.5c2.6,0.2,5.2,0.5,8.4,0.8
		C1016.1,249.1,1014.8,250.3,1013.5,251.6z M1022.5,256.7c-1.3-0.7-2.5-1.4-3.8-2.1c1.7-0.3,3.3-0.6,4.8-0.9
		c0.3,0.5,0.6,0.9,0.9,1.4C1023.8,255.6,1023.2,256.1,1022.5,256.7z M1018,247.3c-6.9-5.3-12.9-10-18.9-14.7
		c6.1,1.1,12.1,2.3,18,3.4c-1.9,2.1-3.7,4.1-5.4,6.1c3.2-0.7,8.6-1.8,15.2-3.3C1023.8,241.8,1020.9,244.5,1018,247.3z M1020.3,232.3
		c-6.3-4.3-12.6-8.6-19-12.8c0.3-0.4,0.5-0.7,0.8-1.1c5.2,0.8,10.4,1.7,15.6,2.5c-0.3,0.3-0.6,0.5-0.8,0.8c5.1-0.7,9.1-1.3,14.7-2
		C1027.6,224.2,1023.8,228.4,1020.3,232.3z M1050.8,219.7c1.4,0.2,2.8,0.3,4,0.5c-0.7,0.5-1.4,1-2.2,1.5
		C1052,221,1051.4,220.4,1050.8,219.7z M1056.4,239.7c1.4-0.1,2.7,0.1,3.9,0.3c-0.8,0.4-1.5,0.8-2.3,1.3
		C1057.5,240.8,1056.9,240.2,1056.4,239.7z M1064.8,261.1c-1.7-1.6-3.3-3.4-4.8-5.3c1.4-0.4,2.8-0.8,4.2-1.3c1.9,0.3,3.9,0.7,6,1.1
		C1068.5,257.6,1066.7,259.4,1064.8,261.1z M1064,233.5c1.7-0.2,3.3-0.4,5-0.6c0.2,0.6,0.5,1.2,0.7,1.8c-1,0.6-2,1.1-3,1.7
		C1065.8,235.4,1064.9,234.5,1064,233.5z M1071.4,254c-0.4-0.4-0.9-0.8-1.3-1.2c0.9-0.3,1.8-0.6,2.8-0.8
		C1072.4,252.7,1071.9,253.4,1071.4,254z M1062.1,231.6c-2.6-2.7-5.2-5.4-8-8.3c3.2-0.6,6.5-1.3,9.7-1.9c0.5,0.1,0.9,0.1,1.4,0.2
		c-0.1-0.1-0.3-0.2-0.4-0.4c4.8-0.9,9.7-1.9,14.8-2.9C1073.8,222.8,1068,227.1,1062.1,231.6z M1503.1,237.6
		c-0.5-0.3-0.9-0.6-1.4-0.8c0.2-0.5,0.5-1,0.7-1.5h3.7C1505.2,236,1504.1,236.8,1503.1,237.6z M1509,267.9c-0.5-0.3-0.9-0.6-1.4-0.9
		c0.9-0.3,1.8-0.7,2.7-1C1509.9,266.6,1509.5,267.3,1509,267.9z M1507.2,234.4c-5.1-3.2-9.9-6.2-14.6-9.1c0.2-0.4,0.3-0.7,0.5-1.1
		c2-0.2,4.1-0.4,6.2-0.6c-1,0.8-2,1.7-3,2.5c0.1,0.5,0.3,0.9,0.4,1.4c7.6-2.7,15.1-5.5,23.1-8.4
		C1516.3,225.4,1512.1,230.3,1507.2,234.4z M1505.5,197.6c3.7-0.6,7.1-1.1,10.4-1.6c0.2,0.7,0.5,1.5,0.7,2.2
		c-4.4,3-8.7,5.9-13.1,8.9c-5.6-3.2-11.1-6.3-16.7-9.4c0.2-0.5,0.5-1,0.7-1.5c3,0.3,6,0.5,9.9,0.9c-7.3-5.6-13.6-10.5-19.8-15.4
		c9.6,1.8,18.8,3.5,27.9,5.2c0-0.3,0-0.7,0-1c-1-0.7-1.9-1.3-2.9-2c7.8-1.8,15.6-3.7,23.9-5.7C1519.5,184.8,1512.7,191,1505.5,197.6
		z M1587,268.8c-0.6-0.9-1.3-1.8-1.9-2.7c1.2,0.4,2.3,0.8,3.4,1.2C1588.1,267.9,1587.6,268.4,1587,268.8z M1593.9,244
		c0.1-0.2,0.2-0.4,0.2-0.6h0.5C1594.4,243.6,1594.2,243.8,1593.9,244z M1588.7,234.6c-1.5-1.1-2.9-2.2-4.4-3.3
		c0.2-0.4,0.3-0.9,0.5-1.3c3.2-0.4,6.5-0.8,10-1.2C1592.8,230.7,1590.8,232.6,1588.7,234.6z M1597.9,225.7c-1.9-1.7-3.4-3.1-5-4.5
		c0.1-0.4,0.2-0.7,0.4-1.1c0.8-0.2,1.5-0.3,2.3-0.5h8.7c0,0,0,0,0,0C1602.2,221.6,1600,223.7,1597.9,225.7z M1653.8,276.4
		c-0.6,0-1.2-0.1-1.8-0.1c0.2-0.5,0.4-0.9,0.6-1.4c0.9,0.1,1.8,0.2,2.7,0.3L1653.8,276.4z M1658.6,272.5c-5.7-5.4-10.9-10.3-16-15.1
		c5,1.1,9.8,2.2,14.6,3.3c-1.4,1.3-2.7,2.6-4.1,3.9c3.9-0.7,7.8-1.5,11.7-2.2c1.6,0.4,3.2,0.7,4.7,1.1
		C1665.9,266.5,1662.3,269.5,1658.6,272.5z M1730.9,271.9c-0.3,0.2-0.6,0.3-0.9,0.5c-3.9-3.2-7.8-6.4-11.8-9.7
		c0.3-0.4,0.5-0.9,0.8-1.3c3.9,0.8,7.9,1.5,11.8,2.3V271.9z M1742.5,203.1h4.2c0.1,0.5,0.1,0.9,0.2,1.4c-1.5,1.2-3,2.5-4.5,3.7
		V203.1z M1742.5,226.5c1.7,0.1,3.1,0.3,4.4,0.4c0.1,0.5,0.1,1.1,0.2,1.6c-1.5,1.1-3.1,2.3-4.6,3.4V226.5z M1742.5,250.3
		c0.4-0.1,0.9-0.3,1.3-0.4c-0.5,0.9-0.9,1.7-1.3,2.4V250.3z M1742.5,263.8v-9.9c4.3-1.6,8.1-3.1,13-4.9
		C1751.5,255.1,1747.2,259.8,1742.5,263.8z M1742.5,224.4v-14.1c7.3-2.7,14.7-5.3,22.5-8.2C1759.3,212.4,1751.6,218.8,1742.5,224.4z
		"/>
	<path class="st0" d="M1828.8,271.2c-12.9,2.6-26.6,3.6-40.5,3.9c-3.3-2-6.6-4.1-9.9-6.1c0.2-0.5,0.5-1,0.7-1.6h6.4
		c-5.9-3.7-11.2-7-16.6-10.4c0.2-0.4,0.3-0.8,0.5-1.1c5.1-0.5,10.2-1,16.2-1.7c-3.3-2.5-5.5-4.2-7.8-5.9c0.2-0.5,0.4-0.9,0.6-1.4
		h17.4c-11.3-6.4-22.2-12.5-33-18.6c0.3-0.5,0.5-1,0.8-1.6c3.1,0.3,6.3,0.6,10.3,0.9c-7.6-5.9-14.1-11-20.6-16
		c10,1.9,19.6,3.7,29.1,5.4c0-0.4,0-0.7,0-1.1c-8.9-6-17.8-12.1-26.7-18.1c0.3-0.4,0.6-0.8,0.8-1.1c5.7,0.9,11.4,1.8,17.1,2.7
		c-9.5-6.2-18.3-12.5-25.1-22c5.3,0.9,10,1.8,16.2,2.9c-6.9-6.5-12.5-11.9-18.1-17.2c3.3-0.2,5.9,0.7,8.6,1.3c2.8,0.6,5.6,0.9,8,1.2
		c-7.2-7.5-14.3-15-22.4-23.4c6.1,0.8,10.3,1.3,15.2,1.9c-6.3-5.9-11.9-11.2-17.5-16.5c0.2-0.4,0.5-0.7,0.7-1.1
		c2.2,0.6,4.5,1.3,5.7,1.6c-3.4-5.7-7.1-11.8-10.7-17.8c0.5-0.4,1-0.8,1.5-1.1c1.4,0.7,2.8,1.3,4.1,1.9c-3-7.4-5.9-14.7-9-22.3
		c-3,7.5-5.8,14.6-8.7,21.9c1.2-0.4,2.5-0.8,3.7-1.2c0.5,0.4,1,0.8,1.4,1.2c-3.7,5.9-7.3,11.8-10.8,17.6c1.7-0.5,3.7-1.2,5.8-1.8
		c0.3,0.4,0.5,0.8,0.8,1.2c-5.5,5.2-11.1,10.5-17.5,16.5c5.3-0.7,9.5-1.3,15.3-2.1c-8,8.9-14.9,16.7-20.9,23.4
		c3.3-0.7,8.9-1.9,15.9-3.4c-6.6,6.3-12.2,11.8-19,18.3c6.2-1.1,10.9-2,15.6-2.9c0.3,0.5,0.7,1,1,1.5c-8.5,6.8-17,13.5-25.5,20.3
		c5.6-0.9,11.4-1.8,17.1-2.6c0.3,0.4,0.5,0.8,0.8,1.2c-8.8,5.9-17.6,11.9-26.5,17.8c0.1,0.4,0.2,0.8,0.3,1.3
		c9.5-1.9,19.1-3.7,29.3-5.7c-7.4,5.6-14.5,11-22,16.6c3.9-0.5,7.3-1,10.8-1.4c0.3,0.6,0.5,1.3,0.8,1.9
		c-10.8,6.1-21.7,12.1-33.5,18.8h17.9c0.1,0.4,0.1,0.8,0.2,1.2c-1.9,1.3-3.8,2.7-5.8,4c0.1,0.4,0.3,0.8,0.4,1.2
		c7.9-2.4,15.8-4.7,24.1-7.2c-6.5,9.8-15.7,15.5-26.6,20.7c3.4,0.2,5.6,0.4,7.8,0.5c0.1,0.5,0.1,0.9,0.2,1.4
		c-2.4,1.4-4.8,2.9-7.1,4.3c-10.8-0.4-21.6-1-32.4-1.5"/>
</g>
</svg>
