<svg width="5615" height="1559" viewBox="0 0 5615 1559" fill="none" xmlns="http://www.w3.org/2000/svg">
<path d="M1319.86 768.565C1279.73 762.459 1239.89 756.061 1200.64 750.827C1202.09 750.827 1203.25 750.536 1204.71 750.536C1195.4 743.557 1189.3 738.905 1182.9 734.252C1183.48 733.089 1184.06 731.635 1184.35 730.472H1233.2C1201.51 712.442 1171.27 695.576 1141.03 678.42C1141.61 676.966 1142.48 675.512 1143.06 674.058C1151.78 674.93 1160.51 675.512 1171.85 676.675C1150.62 660.391 1132.3 646.142 1114.27 631.893C1142.19 637.127 1168.94 642.071 1195.4 647.014C1195.4 646.142 1195.4 644.979 1195.4 644.106C1170.39 627.24 1145.68 610.374 1120.67 593.508C1121.54 592.345 1122.12 591.473 1123 590.309C1138.99 592.927 1154.98 595.544 1170.69 597.87C1144.22 580.713 1119.51 562.975 1100.61 536.513C1115.15 539.13 1128.81 541.456 1145.68 544.655C1126.49 526.335 1110.78 511.505 1095.08 496.674C1104.1 496.093 1111.66 498.71 1119.22 500.454C1127.07 502.199 1134.92 502.781 1141.61 503.944C1121.54 483.007 1101.48 462.07 1079.09 438.516C1095.95 440.551 1107.88 442.005 1121.54 443.75C1104.1 427.175 1088.39 412.635 1072.69 397.805C1073.27 396.641 1074.15 395.769 1074.73 394.606C1080.83 396.351 1087.23 398.095 1090.72 398.968C1081.12 382.974 1070.95 366.108 1060.77 349.242C1062.22 348.079 1063.68 347.207 1064.84 346.044C1068.91 347.788 1072.69 349.824 1076.18 351.569C1067.75 330.922 1059.61 310.567 1051.17 289.339C1042.74 310.276 1034.89 330.05 1026.75 350.405C1030.24 349.242 1033.73 348.37 1037.22 347.207C1038.67 348.37 1039.83 349.533 1041.29 350.696C1031.11 367.271 1020.93 383.847 1011.05 399.84C1015.7 398.386 1021.51 396.641 1027.33 394.897C1028.2 396.06 1028.78 397.223 1029.66 398.386C1014.24 412.926 998.833 427.756 980.805 444.622C995.635 442.587 1007.27 440.842 1023.55 438.806C1001.45 463.815 981.968 485.333 965.394 503.944C974.699 501.908 990.401 498.71 1009.59 494.348C991.273 512.086 975.571 527.207 956.379 545.527C973.826 542.329 986.911 540.002 999.997 537.676C1000.87 539.13 1001.74 540.293 1002.61 541.747C978.77 560.649 955.216 579.55 931.372 598.452C947.074 596.125 963.068 593.508 979.06 591.182C979.642 592.345 980.514 593.508 981.096 594.671C961.032 608.048 941.259 621.424 921.195 635.092C911.018 629.276 900.84 623.46 890.663 617.644C891.244 616.19 892.117 614.736 892.698 613.282C901.422 614.154 910.145 614.736 921.486 615.899C900.259 599.615 881.94 585.366 863.911 571.117C891.826 576.351 918.578 581.295 945.039 586.238C945.039 585.366 945.039 584.203 945.039 583.33C920.032 566.464 895.315 549.599 870.308 532.733C871.181 531.569 871.762 530.697 872.635 529.534C888.627 532.151 904.62 534.768 920.323 537.094C893.862 519.938 869.145 502.199 850.244 475.737C864.783 478.354 878.45 480.681 895.315 483.879C876.124 465.559 860.422 450.729 844.719 435.898C853.734 435.317 861.294 437.934 868.854 439.679C876.705 441.424 884.557 442.005 891.245 443.168C871.181 422.231 851.117 401.294 828.727 377.74C845.592 379.775 857.514 381.229 871.181 382.974C853.734 366.399 838.031 351.859 822.329 337.029C822.911 335.866 823.783 334.993 824.365 333.83C830.471 335.575 836.868 337.32 840.358 338.483C830.762 322.489 820.585 305.623 810.407 288.757C811.861 287.594 813.315 286.722 814.478 285.559C818.549 287.303 822.329 289.339 825.819 291.084C817.386 270.437 809.244 250.082 800.812 228.854C792.379 249.791 784.528 269.565 776.386 289.92C779.875 288.757 783.365 287.885 786.854 286.722C788.308 287.885 789.471 289.048 790.925 290.211C780.748 306.786 770.57 323.362 760.684 339.355C765.336 337.901 771.152 336.157 776.967 334.412C777.84 335.575 778.421 336.738 779.294 337.901C763.882 352.441 748.471 367.271 730.442 384.137C745.272 382.102 756.904 380.357 773.187 378.322C751.088 403.33 731.606 424.848 715.031 443.459C724.336 441.424 740.038 438.225 759.23 433.863C744.691 447.821 731.896 460.325 717.648 473.702C692.932 459.743 668.797 446.076 644.662 432.409C645.244 430.955 646.116 429.501 646.697 428.047C655.421 428.919 664.144 429.501 675.485 430.664C654.258 414.38 635.939 400.131 617.91 385.882C645.825 391.116 672.577 396.06 699.038 401.003C699.038 400.131 699.038 398.968 699.038 398.095C674.031 381.229 649.314 364.363 624.307 347.497C625.18 346.334 625.761 345.462 626.634 344.299C642.627 346.916 658.619 349.533 674.322 351.859C647.861 334.703 623.144 316.964 604.243 290.502C618.782 293.119 632.449 295.446 649.315 298.644C630.123 280.324 614.421 265.494 598.719 250.663C607.733 250.082 615.293 252.699 622.853 254.444C630.704 256.188 638.556 256.77 645.244 257.933C625.18 236.996 605.116 216.059 582.726 192.505C599.591 194.54 611.513 195.994 625.18 197.739C607.733 181.164 592.031 166.624 576.328 151.794C576.91 150.631 577.782 149.758 578.364 148.595C584.47 150.34 590.867 152.085 594.357 152.957C584.761 136.963 574.584 120.097 564.406 103.231C565.86 102.068 567.314 101.196 568.477 100.033C572.548 101.778 576.328 103.813 579.818 105.558C571.385 84.9115 563.243 64.556 554.811 43.3281C546.378 64.2652 538.527 84.0391 530.385 104.395C533.874 103.231 537.364 102.359 540.853 101.196C542.307 102.359 543.47 103.522 544.924 104.685C534.747 121.261 524.569 137.836 514.683 153.829C519.335 152.375 525.151 150.631 530.967 148.886C531.839 150.049 532.42 151.212 533.293 152.375C517.881 166.915 502.47 181.746 484.442 198.612C499.271 196.576 510.903 194.831 527.186 192.796C505.087 217.804 485.605 239.323 469.03 257.933C478.335 255.898 494.037 252.699 513.229 248.337C494.91 266.075 479.207 281.197 460.016 299.517C477.463 296.318 490.548 293.992 503.633 291.665C504.505 293.119 505.378 294.282 506.25 295.736C483.278 314.056 460.307 332.085 437.335 350.405C416.399 336.157 395.172 321.908 374.235 307.659C375.108 306.496 375.689 305.623 376.562 304.46C392.555 307.077 408.548 309.694 424.25 312.021C397.789 294.864 373.072 277.126 354.172 250.663C368.711 253.281 382.377 255.607 399.243 258.806C380.051 240.486 364.349 225.655 348.647 210.825C357.661 210.243 365.221 212.86 372.782 214.605C380.633 216.35 388.484 216.931 395.172 218.095C375.108 197.158 355.044 176.22 332.654 152.666C349.519 154.702 361.441 156.156 375.108 157.901C357.661 141.325 341.959 126.786 326.257 111.955C326.838 110.792 327.71 109.92 328.292 108.757C334.398 110.501 340.796 112.246 344.285 113.118C334.689 97.1248 324.512 80.2588 314.335 63.3928C315.788 62.2297 317.242 61.3573 318.405 60.1941C322.476 61.9389 326.257 63.9744 329.746 65.7192C321.313 45.0729 313.171 24.7174 304.739 3.48952C296.306 24.4266 288.455 44.2005 280.313 64.556C283.802 63.3928 287.292 62.5205 290.781 61.3573C292.235 62.5205 293.398 63.6836 294.852 64.8468C284.675 81.422 274.498 97.9972 264.611 113.991C269.263 112.537 275.079 110.792 280.895 109.047C281.767 110.21 282.349 111.374 283.221 112.537C267.81 127.076 252.398 141.907 234.37 158.773C249.2 156.737 260.831 154.993 277.115 152.957C255.015 177.965 235.533 199.484 218.958 218.095C228.263 216.059 243.965 212.86 263.157 208.498C244.838 226.237 229.136 241.358 209.944 259.678C227.391 256.479 240.476 254.153 253.561 251.827C254.434 253.281 255.306 254.444 256.178 255.898C232.334 274.799 208.781 293.701 184.937 312.602C200.639 310.276 216.632 307.659 232.625 305.333C233.207 306.496 234.079 307.659 234.66 308.822C209.944 325.397 185.518 341.972 160.802 358.548C161.093 359.711 161.384 360.874 161.674 362.037C188.426 356.803 214.887 351.569 243.384 346.044C222.738 361.746 202.965 376.577 182.029 392.57C192.788 391.116 202.675 389.953 212.27 388.79C212.852 390.535 213.724 392.28 214.306 394.024C184.065 410.89 153.823 427.756 120.674 446.367H170.689C170.979 447.53 170.979 448.693 171.27 449.857C166.036 453.637 160.511 457.417 155.277 460.907C155.568 462.07 156.15 463.233 156.44 464.396C178.54 457.708 200.348 451.31 223.611 444.331C205.292 471.666 179.994 487.66 149.462 502.199C159.057 502.781 165.164 503.362 171.27 503.653C171.561 504.816 171.561 506.27 171.852 507.434C147.426 522.264 123 536.804 95.667 553.379H136.667C130.27 559.485 126.199 563.266 119.22 569.663C135.504 565.592 148.298 562.393 162.837 558.904C159.93 562.975 158.185 565.592 155.568 569.663C169.235 565.301 181.157 561.521 196.568 556.868C182.611 574.897 166.327 588.274 149.171 598.742C100.029 598.742 50.3052 599.615 0 599.615L0.00718689 1558.36H5608.59L5614.99 558.904C5537.35 570.245 5495.77 641.489 5412.31 650.213C5401.26 651.376 5389.92 651.376 5378.29 651.085C5369.86 642.361 5361.72 632.474 5354.16 620.843C5369.86 626.368 5381.78 630.73 5395.74 635.673C5393.12 630.439 5391.67 627.822 5389.05 622.878C5403.01 627.24 5415.51 631.02 5427.72 634.801C5428.3 633.638 5428.89 632.474 5429.18 631.311C5424.52 627.24 5419.87 623.46 5415.22 619.68C5415.8 618.226 5416.38 617.062 5416.96 615.609H5453.31C5426.56 595.835 5402.42 577.805 5378.29 559.776C5378.87 558.031 5379.74 556.287 5380.33 554.542H5398.35C5381.78 542.038 5366.95 530.697 5352.12 519.356C5352.7 518.193 5352.99 516.739 5353.57 515.576C5367.82 513.831 5382.07 512.086 5398.94 510.051C5389.63 501.618 5383.52 495.802 5377.13 490.277C5377.71 488.823 5378.29 487.078 5378.58 485.624H5427.43C5395.74 463.815 5365.5 443.168 5335.25 422.522C5335.84 420.777 5336.71 419.032 5337.29 417.288C5346.01 418.16 5354.74 419.323 5366.08 420.486C5344.85 400.713 5326.53 383.265 5308.5 366.399C5336.42 372.796 5363.17 378.612 5389.63 384.719C5389.63 383.556 5389.63 382.393 5389.63 380.939C5364.62 360.583 5339.91 340.228 5314.9 319.581C5315.77 318.418 5316.35 316.964 5317.23 315.801C5333.22 319 5349.21 321.908 5364.91 325.106C5338.45 304.169 5313.74 282.651 5294.84 250.663C5309.37 253.862 5323.04 256.77 5339.91 260.55C5320.72 238.45 5305.01 220.421 5289.31 202.101C5298.32 201.519 5305.89 204.718 5313.45 206.754C5321.3 208.789 5329.15 209.662 5335.84 210.825C5315.77 185.235 5295.71 160.227 5273.32 131.729C5290.18 134.346 5302.1 136.091 5315.77 138.127C5298.32 118.062 5282.62 100.324 5266.92 82.2944C5267.5 81.1312 5268.37 79.6772 5268.96 78.5141C5275.06 80.5496 5281.46 82.876 5284.95 84.0391C5276.52 67.1732 5267.79 49.144 5258.78 31.1148C5254.71 26.7529 5250.93 21.8095 5247.73 16.5752C5247.44 16.2844 5247.15 15.7028 5247.15 15.412C5238.71 26.753 5229.12 37.2215 5219.81 47.69C5211.67 56.7046 5203.82 65.4284 5194.81 73.5706C5193.93 74.443 5192.77 75.3154 5191.61 76.1877C5191.03 80.2588 5190.44 84.6207 5189.28 88.6918C5199.75 79.6772 5209.64 69.4995 5218.65 58.7402C5214.29 67.4639 5209.64 76.1877 5205.27 84.9115C5209.93 83.1668 5215.74 80.8404 5221.56 78.8049C5222.43 80.2588 5223.01 81.422 5223.88 82.876C5208.47 100.614 5193.06 118.353 5175.03 138.708C5189.86 136.091 5201.49 134.346 5217.78 131.438C5195.68 161.681 5176.2 187.852 5159.62 210.534C5168.93 208.208 5184.63 204.137 5203.82 199.193C5185.5 220.421 5169.8 239.032 5150.61 261.132C5168.06 257.352 5181.14 254.444 5194.23 251.536C5195.1 253.281 5195.97 254.735 5196.84 256.479C5173 279.452 5149.44 302.134 5125.6 325.106C5141.3 322.198 5157.3 319.291 5173.29 316.092C5173.87 317.546 5174.74 318.709 5175.32 320.163C5150.61 340.228 5126.18 360.292 5101.47 380.357L5102.34 384.719C5129.09 378.321 5155.55 372.215 5184.05 365.236C5163.4 384.137 5143.63 402.457 5122.69 421.65C5133.45 419.905 5143.34 418.451 5152.93 416.997C5153.52 419.032 5154.39 421.359 5154.97 423.394C5136.65 435.899 5118.04 448.403 5098.85 461.488V316.092C5087.22 324.234 5073.84 329.468 5059.59 331.213C5061.34 332.958 5063.37 334.703 5065.12 336.447V484.461C5063.66 485.333 5062.5 486.206 5061.05 487.078H5065.12V595.253C5055.81 602.232 5045.93 609.211 5036.04 616.481H5065.12V629.276C5063.37 631.311 5061.34 633.638 5059.01 635.964C5061.05 635.382 5063.08 634.801 5065.12 634.219V654.865C5043.89 637.127 5024.12 617.935 5008.42 591.473C5022.96 594.671 5036.62 597.579 5053.49 601.36C5034.3 579.259 5018.59 561.23 5002.89 542.91C5011.91 542.329 5019.47 545.527 5027.03 547.563C5034.88 549.598 5042.73 550.471 5049.42 551.634C5029.35 526.044 5009.29 501.036 4986.9 472.538C5003.76 475.156 5015.69 476.9 5029.35 478.936C5011.91 458.871 4996.2 441.133 4980.5 423.104C4981.08 421.94 4981.96 420.487 4982.54 419.323C4988.64 421.359 4995.04 423.685 4998.53 424.848C4988.93 405.656 4978.76 385.01 4968.58 364.363C4970.03 363.2 4971.49 361.746 4972.65 360.583C4976.72 362.91 4980.5 365.236 4983.99 366.981C4975.56 341.972 4967.42 317.255 4958.98 291.665C4950.55 316.964 4942.7 341.1 4934.56 365.817C4938.05 364.654 4941.54 363.2 4945.03 361.746C4946.48 363.2 4947.64 364.654 4949.1 365.817C4938.92 385.882 4928.74 405.947 4918.86 425.43C4923.51 423.685 4929.32 421.359 4935.14 419.323C4936.01 420.777 4936.59 421.94 4937.47 423.394C4922.05 441.133 4906.64 458.871 4888.61 479.227C4903.44 476.609 4915.08 474.865 4931.36 471.957C4909.26 502.199 4889.78 528.661 4873.2 551.052C4882.51 548.726 4898.21 544.655 4917.4 539.712C4899.08 560.939 4883.38 579.55 4864.19 601.65C4881.64 597.87 4894.72 594.962 4907.81 592.054C4908.68 593.799 4909.55 595.253 4910.42 596.998C4895.59 611.247 4880.76 625.495 4865.93 639.744C4849.07 625.786 4832.2 611.828 4815.05 598.161C4815.92 596.998 4816.5 595.544 4817.37 594.381C4833.37 597.579 4849.36 600.487 4865.06 603.686C4838.6 582.749 4813.88 561.23 4794.98 529.243C4809.52 532.442 4823.19 535.35 4840.05 539.13C4820.86 517.03 4805.16 499 4789.46 480.681C4798.47 480.099 4806.03 483.298 4813.59 485.333C4821.44 487.369 4829.29 488.241 4835.98 489.404C4815.92 463.815 4795.85 438.806 4773.46 410.309C4790.33 412.926 4802.25 414.671 4815.92 416.706C4798.47 396.641 4782.77 378.903 4767.07 360.874C4767.65 359.711 4768.52 358.257 4769.1 357.094C4775.21 359.129 4781.61 361.456 4785.1 362.619C4775.5 343.426 4765.32 322.78 4755.15 302.134C4756.6 300.971 4758.05 299.517 4759.22 298.353C4763.29 300.68 4767.07 303.006 4770.56 304.751C4762.12 279.743 4753.98 255.025 4745.55 229.436C4737.12 254.735 4729.27 278.87 4721.12 303.588C4724.61 302.425 4728.1 300.971 4731.59 299.517C4733.05 300.971 4734.21 302.425 4735.66 303.588C4725.49 323.652 4715.31 343.717 4705.42 363.2C4710.07 361.455 4715.89 359.129 4721.71 357.094C4722.58 358.548 4723.16 359.711 4724.03 361.165C4708.62 378.903 4693.21 396.641 4675.18 416.997C4690.01 414.38 4701.64 412.635 4717.93 409.727C4695.83 439.97 4676.34 466.141 4659.77 488.823C4669.07 486.496 4684.78 482.425 4703.97 477.482C4694.66 488.532 4685.65 498.71 4676.93 508.887C4658.61 496.383 4640.58 483.879 4622.26 471.666C4622.84 469.921 4623.71 468.176 4624.29 466.432C4633.02 467.304 4641.74 468.467 4653.08 469.63C4631.85 449.857 4613.54 432.409 4595.51 415.543C4623.42 421.94 4650.17 428.047 4676.63 433.863C4676.63 432.7 4676.63 431.537 4676.63 430.083C4651.63 409.727 4626.91 389.372 4601.9 368.725C4602.78 367.562 4603.36 366.108 4604.23 364.945C4620.22 368.144 4636.22 371.052 4651.92 374.25C4625.46 353.313 4600.74 331.795 4581.84 299.807C4596.38 303.006 4610.05 305.914 4626.91 309.694C4607.72 287.594 4592.02 269.565 4576.32 251.245C4585.33 250.663 4592.89 253.862 4600.45 255.898C4608.3 257.933 4616.15 258.806 4622.84 259.969C4602.78 234.379 4582.71 209.371 4560.32 180.873C4577.19 183.49 4589.11 185.235 4602.78 187.271C4585.33 167.206 4569.63 149.468 4553.92 131.438C4554.51 130.275 4555.38 128.821 4555.96 127.658C4562.07 129.694 4568.46 132.02 4571.95 133.183C4562.36 113.991 4552.18 93.3445 4542 72.6982C4543.46 71.535 4544.91 70.0811 4546.07 68.9179C4550.14 71.2443 4553.93 73.5706 4557.41 75.3154C4548.98 50.3072 4540.84 25.5898 4532.41 0C4523.97 25.299 4516.12 49.4348 4507.98 74.1522C4511.47 72.989 4514.96 71.535 4518.45 70.0811C4519.9 71.535 4521.07 72.989 4522.52 74.1522C4512.34 94.2169 4502.17 114.282 4492.28 133.765C4496.93 132.02 4502.75 129.694 4508.56 127.658C4509.44 129.112 4510.02 130.275 4510.89 131.729C4495.48 149.468 4480.07 167.206 4462.04 187.561C4476.87 184.944 4488.5 183.199 4504.78 180.292C4482.68 210.534 4463.2 236.705 4446.63 259.387C4455.93 257.061 4471.63 252.99 4490.83 248.046C4472.51 269.274 4456.8 287.885 4437.61 309.985C4455.06 306.205 4468.14 303.297 4481.23 300.389C4482.1 302.134 4482.97 303.588 4483.85 305.333C4460 328.305 4436.45 350.987 4412.61 373.96C4428.31 371.052 4444.3 368.144 4460.29 364.945C4460.88 366.399 4461.75 367.562 4462.33 369.016C4439.36 387.918 4416.39 406.528 4393.41 425.43C4373.93 412.344 4354.74 399.259 4335.26 386.173C4336.13 385.01 4336.71 384.137 4337.58 382.974C4353.58 385.591 4369.57 388.208 4385.27 390.535C4358.81 373.378 4334.09 355.64 4315.19 329.178C4329.73 331.795 4343.4 334.121 4360.26 337.32C4341.07 319 4325.37 304.169 4309.67 289.339C4318.68 288.757 4326.24 291.374 4333.8 293.119C4341.65 294.864 4349.51 295.446 4356.19 296.609C4336.13 275.672 4316.07 254.735 4293.68 231.18C4310.54 233.216 4322.46 234.67 4336.13 236.415C4318.68 219.839 4302.98 205.3 4287.28 190.469C4287.86 189.306 4288.73 188.434 4289.31 187.271C4295.42 189.015 4301.82 190.76 4305.31 191.632C4295.71 175.639 4285.53 158.773 4275.36 141.907C4276.81 140.744 4278.26 139.871 4279.43 138.708C4283.5 140.453 4287.28 142.488 4290.77 144.233C4282.34 123.587 4274.19 103.231 4265.76 82.0036C4257.33 102.941 4249.48 122.715 4241.33 143.07C4244.82 141.907 4248.31 141.035 4251.8 139.871C4253.26 141.035 4254.42 142.198 4255.87 143.361C4245.7 159.936 4235.52 176.511 4225.63 192.505C4230.29 191.051 4236.1 189.306 4241.92 187.561C4242.79 188.725 4243.37 189.888 4244.24 191.051C4228.83 205.591 4213.42 220.421 4195.39 237.287C4210.22 235.251 4221.85 233.507 4238.14 231.471C4216.04 256.479 4196.55 277.998 4179.98 296.609C4189.29 294.573 4204.99 291.374 4224.18 287.013C4205.86 304.751 4190.16 319.872 4170.97 338.192C4188.41 334.993 4201.5 332.667 4214.58 330.341C4215.46 331.795 4216.33 332.958 4217.2 334.412C4193.36 353.313 4169.8 372.215 4145.96 391.116C4161.66 388.79 4177.65 386.173 4193.65 383.847C4194.23 385.01 4195.1 386.173 4195.68 387.336C4170.97 403.911 4146.54 420.486 4121.82 437.062L4122.7 440.551C4149.45 435.317 4175.91 430.083 4204.41 424.558C4183.76 440.26 4163.99 455.091 4143.05 471.084C4153.81 469.63 4163.7 468.467 4173.29 467.304C4173.87 469.049 4174.75 470.794 4175.33 472.538C4145.09 489.404 4114.85 506.27 4081.7 524.881H4131.71C4132 526.044 4132 527.207 4132.29 528.371C4127.06 532.151 4121.53 535.931 4116.3 539.421C4116.59 540.584 4117.17 541.747 4117.46 542.91C4139.56 536.222 4161.37 529.825 4184.63 522.846C4166.31 550.18 4141.02 566.174 4110.48 580.713C4120.08 581.295 4126.19 581.877 4132.29 582.167C4132.58 583.33 4132.58 584.784 4132.87 585.948C4108.45 600.778 4084.02 615.318 4056.69 631.893H4097.11C4090.71 637.999 4086.64 641.78 4079.66 648.177C4095.94 644.106 4108.74 640.907 4123.28 637.418C4120.37 641.489 4118.63 644.106 4116.01 648.177C4129.68 643.815 4141.6 640.035 4157.01 635.382C4149.45 644.979 4141.31 653.411 4132.58 660.681C4109.61 660.972 4086.64 660.972 4063.67 660.972C3972.94 660.972 3872.33 650.213 3789.17 682.491C3751.08 697.321 3719.96 723.783 3678.09 732.216C3660.94 735.706 3642.91 736.869 3624.3 737.451C3619.94 734.834 3615.57 731.926 3611.21 729.308C3611.5 728.727 3611.79 727.855 3612.08 727.273H3620.52C3612.67 722.329 3605.69 717.968 3598.42 713.606C3598.71 713.024 3598.71 712.733 3599 712.152C3605.69 711.57 3612.38 710.698 3620.52 709.825C3616.16 706.627 3613.25 704.3 3610.05 701.974C3610.34 701.392 3610.63 700.811 3610.92 700.229H3634.18C3619.06 691.796 3604.81 683.654 3590.28 675.512C3590.57 674.93 3590.86 674.058 3591.15 673.476C3595.22 673.767 3599.58 674.349 3604.81 674.639C3594.93 666.788 3586.21 660.1 3577.48 653.411C3590.86 656.029 3603.36 658.355 3616.16 660.681C3616.16 660.1 3616.16 659.809 3616.16 659.227C3604.23 651.085 3592.6 643.234 3580.68 635.092C3580.97 634.51 3581.55 634.219 3581.84 633.638C3589.4 634.801 3596.96 635.964 3604.52 637.127C3592.02 628.985 3580.1 620.552 3571.38 608.048C3578.35 609.211 3584.75 610.374 3592.89 611.828C3583.88 603.104 3576.32 596.125 3568.76 588.856C3573.12 588.565 3576.61 589.728 3580.1 590.6C3583.88 591.473 3587.66 591.764 3590.57 592.345C3580.97 582.458 3571.67 572.571 3560.91 561.23C3569.05 562.103 3574.57 562.975 3580.97 563.847C3572.54 555.996 3565.27 549.017 3557.71 542.038C3558 541.456 3558.29 541.165 3558.58 540.584C3561.49 541.456 3564.4 542.329 3566.14 542.619C3561.49 535.059 3556.84 526.917 3551.89 519.065C3552.47 518.484 3553.35 518.193 3553.93 517.611C3555.67 518.484 3557.71 519.356 3559.45 520.228C3555.38 510.341 3551.6 500.745 3547.53 490.568C3543.46 500.455 3539.97 510.051 3535.9 519.647C3537.64 519.065 3539.1 518.484 3540.84 518.193C3541.42 518.774 3542.01 519.356 3542.88 519.938C3537.94 527.789 3533.28 535.64 3528.63 543.201C3530.96 542.619 3533.57 541.747 3536.48 540.875C3536.77 541.456 3537.06 542.038 3537.64 542.619C3530.38 549.598 3522.81 556.578 3514.38 564.429C3521.36 563.557 3526.89 562.684 3534.74 561.521C3524.27 573.444 3514.96 583.621 3507.11 592.636C3511.47 591.763 3519.03 590.019 3528.05 588.274C3519.33 596.707 3511.76 603.977 3502.75 612.701C3510.89 611.247 3517.29 610.083 3523.4 608.92C3523.69 609.502 3524.27 610.374 3524.56 610.956C3513.22 619.97 3502.17 628.985 3490.83 638C3498.39 636.836 3505.95 635.673 3513.51 634.51C3513.8 635.092 3514.09 635.673 3514.38 635.964C3502.75 643.815 3490.83 651.667 3479.2 659.518C3479.2 660.1 3479.49 660.681 3479.49 661.263C3491.99 658.646 3504.79 656.319 3518.16 653.702C3508.28 661.263 3498.97 668.242 3489.08 675.803C3494.32 675.221 3498.97 674.639 3503.33 674.058C3503.62 674.93 3503.91 675.803 3504.5 676.675C3490.25 684.817 3475.71 692.669 3460.01 701.683H3483.85C3483.85 702.265 3484.14 702.846 3484.14 703.428C3481.52 705.173 3478.91 706.917 3476.58 708.662C3476.87 709.244 3476.87 709.825 3477.16 710.116C3487.63 706.917 3498.1 703.719 3509.15 700.52C3500.42 713.606 3488.5 721.166 3473.96 727.854C3478.62 728.145 3481.52 728.436 3484.43 728.436C3484.43 729.018 3484.72 729.599 3484.72 730.181C3481.52 732.216 3478.33 733.961 3475.13 735.997C3460.88 735.415 3446.34 734.833 3432.09 733.961C3408.83 719.712 3387.31 706.336 3365.79 693.25C3366.37 691.796 3367.25 690.342 3367.83 688.888H3385.86C3369.28 678.71 3354.45 669.114 3339.62 659.809C3340.2 658.646 3340.49 657.773 3341.08 656.61C3355.32 655.156 3369.57 653.702 3386.44 651.958C3377.13 644.978 3371.03 640.326 3364.63 635.673C3365.21 634.51 3365.79 633.056 3366.08 631.893H3414.93C3383.24 613.864 3353 596.998 3322.76 579.841C3323.34 578.387 3324.21 576.933 3324.79 575.479C3333.52 576.351 3342.24 576.933 3353.58 578.096C3332.35 561.812 3314.03 547.563 3296.01 533.314C3323.92 538.548 3350.67 543.492 3377.13 548.435C3377.13 547.563 3377.13 546.4 3377.13 545.527C3352.13 528.661 3327.41 511.795 3302.4 494.929C3303.27 493.766 3303.86 492.894 3304.73 491.731C3320.72 494.348 3336.71 496.965 3352.42 499.291C3325.96 482.135 3301.24 464.396 3282.34 437.934C3296.88 440.551 3310.54 442.877 3327.41 446.076C3308.22 427.756 3292.52 412.926 3276.81 398.095C3285.83 397.514 3293.39 400.131 3300.95 401.876C3308.8 403.621 3316.65 404.202 3323.34 405.365C3303.27 384.428 3283.21 363.491 3260.82 339.937C3277.69 341.972 3289.61 343.426 3303.27 345.171C3285.83 328.596 3270.13 314.056 3254.42 299.226C3255 298.063 3255.88 297.19 3256.46 296.027C3262.57 297.772 3268.96 299.517 3272.45 300.68C3262.86 284.686 3252.68 267.82 3242.5 250.954C3243.96 249.791 3245.41 248.919 3246.57 247.756C3250.64 249.5 3254.42 251.536 3257.91 253.281C3249.48 232.634 3241.34 212.279 3232.91 191.051C3224.47 211.988 3216.62 231.762 3208.48 252.117C3211.97 250.954 3215.46 250.082 3218.95 248.919C3220.4 250.082 3221.57 251.245 3223.02 252.408C3212.84 268.983 3202.66 285.559 3192.78 301.552C3197.43 300.098 3203.25 298.353 3209.06 296.609C3209.93 297.772 3210.52 298.935 3211.39 300.098C3195.98 314.638 3180.57 329.468 3162.54 346.334C3177.37 344.299 3189 342.554 3205.28 340.518C3183.18 365.527 3163.7 387.045 3147.13 405.656C3156.43 403.62 3172.13 400.422 3191.32 396.06C3173 413.798 3157.3 428.919 3138.11 447.239C3155.56 444.041 3168.64 441.714 3181.73 439.388C3182.6 440.842 3183.47 442.005 3184.35 443.459C3160.5 462.361 3136.95 481.262 3113.1 500.164C3128.81 497.837 3144.8 495.22 3160.79 492.894C3161.37 494.057 3162.25 495.22 3162.83 496.383C3146.54 507.143 3130.55 518.193 3114.27 528.952C3102.64 517.902 3091.59 507.434 3080.54 497.256C3081.12 496.093 3081.99 495.22 3082.57 494.057C3088.68 495.802 3095.08 497.547 3098.56 498.419C3088.97 482.425 3078.79 465.559 3068.61 448.693C3070.07 447.53 3071.52 446.658 3072.69 445.495C3076.76 447.239 3080.54 449.275 3084.03 451.02C3075.59 430.373 3067.45 410.018 3059.02 388.79C3050.59 409.727 3042.73 429.501 3034.59 449.857C3038.08 448.693 3041.57 447.821 3045.06 446.658C3046.51 447.821 3047.68 448.984 3049.13 450.147C3038.95 466.722 3028.78 483.298 3018.89 499.291C3023.54 497.837 3029.36 496.093 3035.17 494.348C3036.05 495.511 3036.63 496.674 3037.5 497.837C3022.96 511.505 3008.42 525.172 2991.85 540.875C2965.97 524.009 2941.83 506.561 2923.51 480.681C2938.05 483.298 2951.72 485.624 2968.59 488.823C2949.39 470.503 2933.69 455.672 2917.99 440.842C2927 440.26 2934.56 442.877 2942.12 444.622C2949.98 446.367 2957.83 446.949 2964.51 448.112C2944.45 427.175 2924.39 406.238 2902 382.683C2918.86 384.719 2930.78 386.173 2944.45 387.918C2927 371.342 2911.3 356.803 2895.6 341.972C2896.18 340.809 2897.05 339.937 2897.64 338.774C2903.74 340.518 2910.14 342.263 2913.63 343.426C2904.03 327.433 2893.85 310.567 2883.68 293.701C2885.13 292.538 2886.59 291.665 2887.75 290.502C2891.82 292.247 2895.6 294.282 2899.09 296.027C2890.66 275.381 2882.51 255.025 2874.08 233.797C2865.65 254.735 2857.8 274.508 2849.66 294.864C2853.15 293.701 2856.63 292.828 2860.12 291.665C2861.58 292.828 2862.74 293.992 2864.2 295.155C2854.02 311.73 2843.84 328.305 2833.95 344.299C2838.61 342.845 2844.42 341.1 2850.24 339.355C2851.11 340.518 2851.69 341.682 2852.56 342.845C2837.15 357.384 2821.74 372.215 2803.71 389.081C2818.54 387.045 2830.17 385.3 2846.46 383.265C2824.36 408.273 2804.88 429.792 2788.3 448.403C2797.61 446.367 2813.31 443.168 2832.5 438.806C2814.18 456.545 2798.48 471.666 2779.29 489.986C2796.73 486.787 2809.82 484.461 2822.9 482.134C2823.78 483.588 2824.65 484.752 2825.52 486.206C2801.68 505.107 2778.12 524.009 2754.28 542.91C2769.98 540.584 2785.98 537.967 2801.97 535.64C2802.55 536.804 2803.42 537.967 2804 539.13C2779.29 555.705 2754.86 572.28 2730.15 588.856L2731.02 592.345C2757.77 587.111 2784.23 581.877 2812.73 576.351C2792.08 592.054 2772.31 606.885 2751.37 622.878C2762.13 621.424 2772.02 620.261 2781.61 619.098C2782.19 620.843 2783.07 622.588 2783.65 624.332C2753.41 641.198 2723.17 658.064 2690.02 676.675H2740.03C2740.32 677.838 2740.32 679.001 2740.61 680.164C2735.38 683.945 2729.85 687.725 2724.62 691.215C2724.91 692.378 2725.49 693.541 2725.78 694.704C2747.88 688.016 2769.69 681.618 2792.95 674.639C2774.63 701.974 2749.34 717.967 2718.8 732.507C2728.4 733.089 2734.51 733.67 2740.61 733.961C2740.9 735.124 2740.9 736.578 2741.19 737.741C2716.77 752.572 2692.34 767.112 2665.01 783.687H2705.43C2703.39 785.431 2701.65 787.176 2700.19 788.63C2677.51 789.212 2654.25 788.921 2630.99 787.467C2629.83 786.595 2628.37 786.013 2627.21 785.141C2627.5 784.559 2627.79 783.977 2627.79 783.687C2634.77 783.105 2641.75 782.233 2649.89 781.36C2645.53 777.871 2642.33 775.545 2639.42 773.509C2639.71 772.927 2640 772.346 2640.29 771.764H2664.14C2648.73 763.04 2633.9 754.607 2619.36 746.465C2619.65 745.884 2619.94 745.011 2620.52 744.43C2624.88 744.72 2628.95 745.302 2634.48 745.593C2624.3 737.741 2615.29 730.762 2606.56 723.783C2620.23 726.401 2633.31 728.727 2646.11 731.053C2646.11 730.472 2646.11 730.181 2646.11 729.599C2633.9 721.457 2621.97 713.315 2609.76 704.882C2610.05 704.3 2610.63 703.719 2610.92 703.428C2618.78 704.591 2626.34 706.045 2634.19 707.208C2621.39 698.775 2609.18 690.051 2600.17 677.257C2607.44 678.42 2613.83 679.583 2622.27 681.037C2612.96 672.022 2605.4 664.752 2597.55 657.483C2601.91 657.192 2605.69 658.355 2609.18 659.227C2612.96 660.1 2616.74 660.391 2619.94 660.972C2610.05 650.794 2600.46 640.617 2589.41 628.985C2597.55 630.148 2603.36 630.73 2610.05 631.602C2601.62 623.46 2593.77 616.481 2586.21 609.211C2586.5 608.629 2586.79 608.339 2587.08 607.757C2589.99 608.629 2593.19 609.502 2594.93 610.083C2590.28 602.232 2585.34 594.09 2580.39 585.657C2580.97 585.075 2581.85 584.494 2582.43 584.203C2584.46 585.075 2586.21 585.948 2587.95 586.82C2583.88 576.642 2579.81 566.755 2575.74 556.578C2571.67 566.755 2567.89 576.351 2563.82 586.238C2565.56 585.657 2567.31 585.075 2569.05 584.784C2569.63 585.366 2570.22 585.948 2571.09 586.529C2566.14 594.671 2561.2 602.523 2556.26 610.374C2558.58 609.793 2561.2 608.92 2564.11 607.757C2564.4 608.339 2564.98 608.92 2565.27 609.502C2557.71 616.772 2550.15 623.751 2541.43 631.893C2548.7 631.02 2554.51 630.148 2562.36 628.985C2551.61 641.198 2542.01 651.667 2533.87 660.681C2538.52 659.809 2546.08 658.064 2555.39 656.029C2546.37 664.752 2538.81 672.022 2529.51 681.037C2537.94 679.583 2544.34 678.42 2550.73 677.257C2551.31 677.838 2551.61 678.711 2552.19 679.292C2540.56 688.597 2529.22 697.612 2517.58 706.917C2525.14 705.754 2533 704.591 2540.85 703.428C2541.14 704.009 2541.43 704.591 2542.01 705.173C2530.09 713.315 2517.87 721.457 2505.95 729.308L2506.24 731.053C2519.33 728.436 2532.12 726.11 2546.08 723.202C2535.9 730.762 2526.31 738.032 2516.13 745.884C2521.36 745.302 2526.02 744.72 2530.67 743.848C2530.96 744.72 2531.25 745.593 2531.83 746.465C2517 754.607 2502.46 763.04 2486.18 772.055H2510.61C2510.61 772.637 2510.9 773.218 2510.9 773.8C2510.02 774.381 2509.44 774.963 2508.57 775.254C2438.49 765.658 2369.58 753.444 2307.06 745.593C2302.12 745.011 2297.46 744.43 2292.52 743.557C2273.04 723.493 2253.85 703.428 2232.33 680.746C2249.19 682.782 2261.11 684.236 2274.78 685.98C2257.33 669.405 2241.63 654.866 2225.93 640.035C2226.51 638.872 2227.38 637.999 2227.97 636.836C2234.07 638.581 2240.47 640.326 2243.96 641.198C2234.36 625.205 2224.19 608.339 2214.01 591.473C2215.46 590.309 2216.92 589.437 2218.08 588.274C2222.15 590.019 2225.93 592.054 2229.42 593.799C2220.99 573.153 2212.85 552.797 2204.41 531.569C2195.98 552.506 2188.13 572.28 2179.99 592.636C2183.48 591.473 2186.97 590.6 2190.46 589.437C2191.91 590.6 2193.07 591.763 2194.53 592.927C2184.35 609.502 2174.17 626.077 2164.28 642.071C2168.94 640.617 2174.75 638.872 2180.57 637.127C2181.44 638.29 2182.02 639.453 2182.89 640.617C2168.06 654.575 2153.23 668.824 2136.08 684.817C2125.03 677.257 2114.27 669.987 2103.22 662.426C2104.09 661.263 2104.67 660.391 2105.55 659.227C2121.54 661.844 2137.53 664.462 2153.24 666.788C2126.77 649.631 2102.06 631.893 2083.16 605.431C2097.7 608.048 2111.36 610.374 2128.23 613.573C2109.04 595.253 2093.33 580.423 2077.63 565.592C2086.65 565.011 2094.21 567.628 2101.77 569.372C2109.62 571.117 2117.47 571.699 2124.16 572.862C2104.09 551.925 2084.03 530.988 2061.64 507.434C2078.5 509.469 2090.43 510.923 2104.09 512.668C2086.65 496.093 2070.94 481.553 2055.24 466.723C2055.82 465.559 2056.7 464.687 2057.28 463.524C2063.38 465.269 2069.78 467.013 2073.27 467.886C2063.67 451.892 2053.5 435.026 2043.32 418.16C2044.77 416.997 2046.23 416.125 2047.39 414.961C2051.46 416.706 2055.24 418.742 2058.73 420.486C2050.3 399.84 2042.16 379.485 2033.72 358.257C2025.29 379.194 2017.44 398.968 2009.3 419.323C2012.79 418.16 2016.28 417.288 2019.77 416.125C2021.22 417.288 2022.38 418.451 2023.84 419.614C2013.66 436.189 2003.48 452.765 1993.6 468.758C1998.25 467.304 2004.06 465.559 2009.88 463.815C2010.75 464.978 2011.33 466.141 2012.21 467.304C1996.79 481.844 1981.38 496.674 1963.35 513.54C1978.18 511.505 1989.82 509.76 2006.1 507.724C1984 532.733 1964.52 554.251 1947.94 572.862C1957.25 570.826 1972.95 567.628 1992.14 563.266C1981.96 573.153 1972.37 582.167 1962.77 591.473C1945.04 581.586 1927.59 571.699 1910.14 561.812C1910.72 560.358 1911.6 558.904 1912.18 557.45C1920.9 558.322 1929.62 558.904 1940.96 560.067C1919.74 543.783 1901.42 529.534 1883.39 515.285C1911.31 520.519 1938.06 525.463 1964.52 530.406C1964.52 529.534 1964.52 528.371 1964.52 527.498C1939.51 510.632 1914.79 493.766 1889.79 476.9C1890.66 475.737 1891.24 474.865 1892.11 473.702C1908.11 476.319 1924.1 478.936 1939.8 481.262C1913.34 464.105 1888.62 446.367 1869.72 419.905C1884.26 422.522 1897.93 424.848 1914.79 428.047C1895.6 409.727 1879.9 394.897 1864.2 380.066C1873.21 379.485 1880.77 382.102 1888.33 383.847C1896.18 385.591 1904.04 386.173 1910.72 387.336C1890.66 366.399 1870.6 345.462 1848.21 321.908C1865.07 323.943 1876.99 325.397 1890.66 327.142C1873.21 310.567 1857.51 296.027 1841.81 281.197C1842.39 280.034 1843.26 279.161 1843.84 277.998C1849.95 279.743 1856.35 281.487 1859.84 282.36C1850.24 266.366 1840.06 249.5 1829.89 232.634C1831.34 231.471 1832.79 230.599 1833.96 229.436C1838.03 231.18 1841.81 233.216 1845.3 234.961C1836.86 214.314 1828.72 193.959 1820.29 172.731C1811.86 193.668 1804.01 213.442 1795.86 233.797C1799.35 232.634 1802.84 231.762 1806.33 230.599C1807.79 231.762 1808.95 232.925 1810.4 234.088C1800.23 250.663 1790.05 267.239 1780.16 283.232C1784.82 281.778 1790.63 280.034 1796.45 278.289C1797.32 279.452 1797.9 280.615 1798.77 281.778C1783.36 296.318 1767.95 311.148 1749.92 328.014C1764.75 325.979 1776.38 324.234 1792.67 322.198C1770.57 347.207 1751.08 368.725 1734.51 387.336C1743.82 385.301 1759.52 382.102 1778.71 377.74C1760.39 395.478 1744.69 410.599 1725.5 428.919C1742.94 425.721 1756.03 423.394 1769.11 421.068C1769.99 422.522 1770.86 423.685 1771.73 425.139C1747.89 444.041 1724.33 462.942 1700.49 481.844C1716.19 479.517 1732.18 476.9 1748.18 474.574C1748.76 475.737 1749.63 476.9 1750.21 478.063C1725.5 494.639 1701.07 511.214 1676.35 527.789C1676.64 528.952 1676.94 530.115 1677.23 531.279C1703.98 526.044 1730.44 520.81 1758.94 515.285C1738.29 530.988 1718.52 545.818 1697.58 561.812C1708.34 560.358 1718.23 559.195 1727.82 558.031C1728.4 559.776 1729.28 561.521 1729.86 563.266C1710.96 573.734 1692.06 584.203 1672.57 595.253C1660.65 582.749 1648.15 569.954 1634.77 555.996C1651.64 558.032 1663.56 559.485 1677.23 561.23C1659.78 544.655 1644.08 530.115 1628.37 515.285C1628.96 514.122 1629.83 513.249 1630.41 512.086C1636.52 513.831 1642.91 515.576 1646.4 516.448C1636.81 500.455 1626.63 483.589 1616.45 466.723C1617.91 465.559 1619.36 464.687 1620.52 463.524C1624.59 465.269 1628.38 467.304 1631.86 469.049C1623.43 448.403 1615.29 428.047 1606.86 406.819C1598.42 427.756 1590.57 447.53 1582.43 467.886C1585.92 466.723 1589.41 465.85 1592.9 464.687C1594.35 465.85 1595.52 467.013 1596.97 468.176C1586.79 484.752 1576.62 501.327 1566.73 517.32C1571.38 515.866 1577.2 514.122 1583.01 512.377C1583.89 513.54 1584.47 514.703 1585.34 515.867C1569.93 530.406 1554.52 545.237 1536.49 562.103C1551.32 560.067 1562.95 558.322 1579.23 556.287C1557.13 581.295 1537.65 602.814 1521.08 621.424C1530.38 619.389 1546.08 616.19 1565.28 611.828C1546.96 629.566 1531.25 644.688 1512.06 663.008C1529.51 659.809 1542.59 657.483 1555.68 655.156C1556.55 656.61 1557.42 657.773 1558.3 659.227C1534.45 678.129 1510.9 697.03 1487.06 715.932C1502.76 713.606 1518.75 710.988 1534.74 708.662C1535.32 709.825 1536.2 710.989 1536.78 712.152C1512.06 728.727 1487.64 745.302 1462.92 761.877C1463.21 763.04 1463.5 764.204 1463.79 765.367C1490.54 760.132 1517.01 754.898 1545.5 749.373C1524.86 765.076 1505.08 779.906 1484.15 795.9C1494.91 794.446 1504.79 793.283 1514.39 792.12C1514.97 793.864 1515.84 795.609 1516.42 797.354C1516.42 797.354 1516.42 797.354 1516.13 797.354C1458.56 796.191 1399.53 788.921 1340.21 780.197L1319.86 768.565ZM449.548 359.129C449.548 358.257 449.548 357.094 449.548 356.221C446.349 354.186 443.151 351.859 439.952 349.824C454.2 347.497 468.739 345.462 483.278 343.136C483.86 344.299 484.732 345.462 485.314 346.625C464.959 360.292 444.605 374.25 423.959 387.918C403.604 371.924 385.576 358.257 367.838 344.299C396.335 349.242 423.087 354.186 449.548 359.129ZM437.044 446.367C437.626 445.204 438.207 443.75 438.498 442.587H445.186C442.569 444.041 439.952 445.495 437.626 446.949C437.335 446.658 437.335 446.658 437.044 446.367ZM448.385 510.341C445.186 508.306 441.697 506.27 438.498 504.235C439.08 502.781 439.952 501.327 440.534 499.873H458.562C453.619 496.674 448.966 493.766 444.314 490.858C454.2 487.95 464.378 484.752 474.555 481.844C466.995 492.894 458.271 502.199 448.385 510.341ZM459.144 426.593C460.307 426.302 461.761 426.302 462.924 426.012L464.378 429.501C462.633 428.629 460.888 427.756 459.144 426.593ZM446.64 419.614C429.193 409.727 412.328 400.131 395.172 390.535C395.753 389.081 396.626 387.627 397.207 386.173C405.058 386.754 413.2 387.627 423.087 388.499C419.307 391.116 415.526 393.443 411.746 396.06C412.037 397.223 412.328 398.386 412.619 399.549C439.37 394.315 465.832 389.081 494.328 383.556C478.044 395.769 462.633 407.692 446.64 419.614ZM664.435 594.671C675.776 598.161 685.371 600.778 694.967 603.686C690.605 606.885 686.244 610.374 681.882 613.573C675.776 607.757 669.96 601.65 664.435 594.671ZM707.18 683.945C703.981 683.072 700.783 682.2 697.584 681.328C697.584 681.328 697.584 681.037 697.293 681.037C698.166 680.164 698.747 679.001 699.62 678.129C703.109 679.001 706.598 679.874 710.088 680.746C709.215 681.909 708.343 682.782 707.18 683.945ZM696.421 625.495C692.059 622.297 687.988 618.807 683.917 615.027C692.641 613.864 700.783 612.701 708.925 611.828C709.506 613.573 710.379 615.318 710.96 617.062C706.017 619.97 701.364 622.878 696.421 625.495ZM699.329 596.416C700.783 596.707 701.946 596.998 703.4 597.579C702.527 598.161 701.946 598.743 701.074 599.324C700.492 598.161 699.91 597.289 699.329 596.416ZM701.655 552.216C697.293 549.598 692.932 546.981 688.57 544.073C689.152 542.619 690.024 541.166 690.605 539.712H708.634C705.144 537.676 701.946 535.35 698.457 533.314C708.634 531.86 719.102 530.115 729.57 528.371C730.152 529.534 731.024 530.697 731.606 531.86C721.428 538.839 711.542 545.527 701.655 552.216ZM735.386 573.153C734.223 572.571 733.059 571.699 732.187 571.117C734.804 570.536 737.421 569.954 740.329 569.663C738.584 570.536 736.84 571.699 735.386 573.153ZM690.896 528.952C681.01 522.845 671.705 517.03 662.109 510.923C662.69 509.76 662.981 508.888 663.563 507.724C677.811 506.27 692.059 504.816 708.925 503.072C699.62 496.093 693.513 491.44 687.116 486.787C687.698 485.624 688.279 484.17 688.57 483.007H706.889L706.598 483.298C707.471 483.298 708.052 483.007 708.925 483.007H737.421C735.095 481.553 732.769 480.39 730.442 478.936C737.421 477.773 743.818 476.609 750.216 475.446C751.088 476.9 751.96 478.063 752.833 479.517C732.187 495.802 711.542 512.377 690.896 528.952ZM934.571 668.533H940.386C938.351 669.987 936.316 671.731 934.28 673.185C933.989 672.895 933.408 672.604 933.117 672.313C933.408 671.15 933.989 669.987 934.571 668.533ZM917.996 702.846C914.798 700.811 911.308 698.775 908.11 696.74C908.691 695.577 908.982 694.704 909.564 693.541C919.45 692.378 929.628 691.505 940.677 690.342C932.826 694.413 925.557 698.775 917.996 702.846ZM937.769 676.093C945.039 675.221 952.018 674.349 958.706 673.476C959.287 675.221 960.16 676.966 960.741 678.711C956.961 680.746 953.181 683.072 949.401 685.108C945.33 681.618 941.55 678.711 937.769 676.093ZM966.848 733.961C963.358 733.67 960.16 733.38 956.67 733.089C961.323 731.635 965.685 730.472 970.337 729.018C969.174 730.472 968.011 732.216 966.848 733.961ZM958.706 654.865C950.855 650.504 943.294 646.142 935.443 641.78C953.181 638.29 971.209 634.801 990.11 631.021C979.351 638.872 969.174 646.723 958.706 654.865ZM1655.71 645.851C1665.89 647.596 1675.48 649.34 1686.24 651.376C1680.42 654.865 1674.32 657.773 1667.92 660.972C1663.56 656.319 1659.49 651.376 1655.71 645.851ZM1678.68 748.792C1675.48 746.174 1671.99 743.557 1668.79 741.231C1674.03 742.103 1679.26 743.266 1684.5 744.139C1682.75 745.593 1680.72 747.338 1678.68 748.792ZM1679.26 672.604C1676.06 669.696 1673.16 666.497 1669.96 663.589C1676.06 663.88 1681.01 664.462 1685.66 664.752C1685.95 665.916 1685.95 667.37 1686.24 668.533C1683.91 669.696 1681.59 671.15 1679.26 672.604ZM1705.72 723.202C1704.27 722.329 1702.81 721.166 1701.36 720.294C1704.27 719.421 1707.18 718.549 1710.38 717.386C1708.92 719.421 1707.47 721.457 1705.72 723.202ZM1693.51 647.014C1678.1 632.474 1665.01 619.97 1651.93 607.466H1665.01C1668.21 608.048 1671.12 608.92 1674.32 609.793C1677.81 610.665 1681.3 611.246 1684.79 611.537C1679.84 615.027 1674.61 618.516 1669.67 622.006C1669.96 623.169 1670.54 624.332 1670.83 625.495C1692.93 618.807 1714.74 612.41 1738 605.431C1726.08 623.169 1710.96 636.255 1693.51 647.014ZM1936.31 640.907C1932.82 638.581 1929.33 636.546 1925.84 634.219C1926.43 633.056 1926.72 632.184 1927.3 631.021C1935.44 630.148 1943.29 629.276 1951.72 628.403C1946.49 632.765 1941.55 636.836 1936.31 640.907ZM1961.32 656.61C1959.28 655.447 1957.54 654.284 1955.79 653.121C1957.54 652.83 1958.99 652.539 1960.74 652.248C1961.32 653.411 1962.19 654.575 1962.77 655.738C1962.19 656.029 1961.61 656.319 1961.32 656.61ZM1963.35 619.68C1958.7 616.19 1954.92 613.282 1950.85 610.374C1951.43 609.211 1952.01 607.757 1952.31 606.594H1979.93C1974.4 610.665 1968.88 615.027 1963.35 619.68ZM2143.64 709.244C2131.43 706.917 2119.5 704.882 2107.29 702.846C2103.22 699.648 2099.44 696.74 2095.37 693.541C2113.69 697.03 2131.43 700.229 2148.87 703.428C2147.13 705.463 2145.38 707.499 2143.64 709.244ZM2158.18 693.25C2151.2 688.597 2144.22 683.654 2136.95 679.001C2150.04 677.257 2161.09 675.803 2175.63 673.767C2169.81 680.455 2163.99 686.853 2158.18 693.25ZM2529.8 771.183C2525.43 770.601 2521.07 770.019 2517 769.438C2523.11 767.693 2529.22 765.658 2535.61 763.913C2533.58 766.53 2531.83 768.856 2529.8 771.183ZM2979.05 625.205C2973.82 622.297 2968.88 619.389 2963.64 616.481C2964.22 615.027 2965.1 613.573 2965.68 612.119C2973.24 612.701 2980.8 613.573 2990.1 614.445C2986.61 617.935 2982.83 621.424 2979.05 625.205ZM3005.22 640.035C3001.44 638 2997.95 635.964 2994.17 633.928C2999.12 633.056 3003.77 632.184 3008.13 631.311C3009 632.765 3009.88 633.928 3010.75 635.382C3009 636.836 3007.26 638.29 3005.22 640.035ZM2992.14 612.701C2972.08 597.289 2954.63 583.621 2937.18 569.954C2954.92 573.153 2972.37 576.642 2989.52 579.841C2984 585.948 2978.76 591.763 2973.82 597.579C2983.12 595.544 2998.83 592.345 3018.02 587.983C3009 596.707 3000.57 604.558 2992.14 612.701ZM2998.83 569.082C2980.51 556.578 2962.19 544.073 2943.58 531.86C2944.45 530.697 2945.03 529.825 2945.9 528.661C2961.03 530.988 2976.15 533.605 2991.27 535.931C2990.39 536.804 2989.52 537.385 2988.94 538.258C3003.77 536.222 3015.4 534.477 3031.69 532.442C3020.05 545.527 3009 557.741 2998.83 569.082ZM3087.52 532.442C3091.59 533.023 3095.66 533.314 3099.15 533.896C3097.11 535.35 3095.08 536.804 3092.75 538.258C3091 536.222 3089.26 534.477 3087.52 532.442ZM3103.8 590.6C3107.87 590.309 3111.65 590.891 3115.14 591.473C3112.81 592.636 3110.78 593.799 3108.45 595.253C3107 593.799 3105.25 592.054 3103.8 590.6ZM3128.22 652.83C3123.28 648.177 3118.63 642.943 3114.27 637.418C3118.34 636.255 3122.41 635.092 3126.48 633.638C3132 634.51 3137.82 635.673 3143.93 636.836C3138.98 642.652 3133.75 647.886 3128.22 652.83ZM3125.9 572.571C3130.84 571.99 3135.49 571.408 3140.44 570.826C3141.02 572.571 3141.89 574.316 3142.47 576.061C3139.56 577.805 3136.66 579.259 3133.75 581.004C3131.13 578.096 3128.52 575.479 3125.9 572.571ZM3147.42 632.184C3146.25 631.02 3144.8 629.857 3143.64 628.694C3146.25 627.822 3148.87 626.949 3151.78 626.368C3150.32 628.403 3148.87 630.439 3147.42 632.184ZM3120.37 567.046C3112.81 559.195 3105.25 551.343 3097.11 542.91C3106.42 541.166 3116.01 539.13 3125.32 537.385C3126.77 537.676 3127.93 537.676 3129.39 537.967C3129.1 537.676 3128.52 537.385 3128.22 536.804C3142.18 534.186 3156.43 531.279 3171.26 528.371C3154.39 541.456 3137.53 553.96 3120.37 567.046ZM4402.72 584.494C4401.26 583.621 4400.1 582.749 4398.65 582.167C4399.23 580.713 4400.1 579.259 4400.68 577.805H4411.44C4408.82 579.841 4405.63 582.167 4402.72 584.494ZM4419.88 672.604C4418.42 671.731 4417.26 670.859 4415.8 669.987C4418.42 669.114 4421.04 667.951 4423.66 667.079C4422.49 668.824 4421.33 670.859 4419.88 672.604ZM4414.64 575.188C4399.81 565.883 4385.85 557.159 4372.19 548.726C4372.77 547.563 4373.06 546.691 4373.64 545.527C4379.46 544.946 4385.56 544.364 4391.67 543.783C4388.76 546.109 4385.85 548.726 4382.95 551.052C4383.24 552.506 4383.82 553.67 4384.11 555.124C4406.21 547.272 4428.02 539.13 4451.28 530.697C4441.1 549.017 4428.89 563.266 4414.64 575.188ZM4409.7 468.176C4420.46 466.432 4430.34 464.978 4439.94 463.524C4440.52 465.559 4441.39 467.886 4441.97 469.921C4429.18 478.645 4416.68 487.078 4403.88 495.802C4387.6 486.496 4371.61 477.482 4355.32 468.467C4355.9 467.013 4356.78 465.559 4357.36 464.105C4366.08 464.978 4374.8 465.559 4386.14 466.723C4364.92 450.438 4346.6 436.189 4328.57 421.94C4356.48 427.175 4383.24 432.118 4409.7 437.062C4409.7 436.189 4409.7 435.026 4409.7 434.154C4406.79 432.118 4404.17 430.373 4401.26 428.338C4423.95 423.104 4446.63 417.579 4470.76 411.763C4450.41 430.955 4430.63 448.984 4409.7 468.176ZM4646.68 675.221C4644.94 672.604 4642.9 669.987 4641.16 667.37C4644.65 668.533 4647.85 669.696 4651.05 670.859C4649.88 672.604 4648.43 674.058 4646.68 675.221ZM4666.75 603.104C4667.04 602.523 4667.33 601.941 4667.33 601.36H4668.78C4668.2 601.941 4667.62 602.523 4666.75 603.104ZM4651.63 575.77C4647.27 572.571 4643.19 569.372 4638.83 566.174C4639.41 565.011 4639.71 563.557 4640.29 562.393C4649.59 561.23 4659.19 560.067 4669.37 558.904C4663.55 564.429 4657.73 569.954 4651.63 575.77ZM4678.38 549.889C4672.85 544.946 4668.49 540.875 4663.84 536.804C4664.13 535.64 4664.42 534.768 4665 533.605C4667.33 533.023 4669.37 532.732 4671.69 532.151H4696.99C4690.88 537.967 4684.49 544.073 4678.38 549.889ZM4840.93 697.321C4839.18 697.321 4837.44 697.03 4835.69 697.03C4836.27 695.576 4836.85 694.413 4837.44 692.959C4840.05 693.25 4842.67 693.541 4845.29 693.832L4840.93 697.321ZM4854.88 685.98C4838.31 670.277 4823.19 656.029 4808.36 642.071C4822.9 645.269 4836.86 648.468 4850.81 651.667C4846.74 655.447 4842.96 659.227 4838.89 663.008C4850.23 660.972 4861.57 658.646 4872.91 656.61C4877.56 657.773 4882.22 658.646 4886.58 659.809C4876.11 668.533 4865.64 677.257 4854.88 685.98ZM5065.12 684.236C5064.25 684.817 5063.37 685.108 5062.5 685.69C5051.16 676.384 5039.82 667.079 5028.19 657.483C5029.06 656.319 5029.64 654.865 5030.52 653.702C5041.86 656.029 5053.49 658.064 5064.83 660.391V684.236H5065.12ZM5098.85 484.17H5111.06C5111.35 485.624 5111.35 486.787 5111.64 488.241C5107.28 491.731 5102.92 495.511 5098.56 499.001V484.17H5098.85ZM5098.85 552.216C5103.79 552.506 5107.86 553.088 5111.64 553.379C5111.93 554.833 5111.93 556.577 5112.22 558.031C5107.86 561.23 5103.21 564.72 5098.85 567.918V552.216ZM5098.85 621.424C5100.01 621.134 5101.47 620.552 5102.63 620.261C5101.18 622.878 5100.01 625.205 5098.85 627.24V621.424ZM5098.85 660.681V631.893C5111.35 627.24 5122.4 622.878 5136.65 617.644C5125.02 635.382 5112.52 649.05 5098.85 660.681ZM5098.85 546.109V505.107C5120.08 497.256 5141.59 489.695 5164.27 481.262C5147.7 511.214 5125.31 529.825 5098.85 546.109Z" fill="#61936F"/>
<path d="M5349.79 682.199C5312.28 689.76 5272.45 692.668 5232.03 693.54C5222.43 687.724 5212.84 681.617 5203.24 675.802C5203.82 674.348 5204.69 672.894 5205.27 671.149H5223.89C5206.73 660.39 5191.32 650.793 5175.62 640.906C5176.2 639.743 5176.49 638.58 5177.07 637.708C5191.9 636.254 5206.73 634.8 5224.18 632.764C5214.58 625.494 5208.18 620.551 5201.5 615.607C5202.08 614.154 5202.66 612.99 5203.24 611.536H5253.84C5220.98 592.926 5189.28 575.187 5157.88 557.449C5158.75 555.995 5159.33 554.541 5160.2 552.796C5169.22 553.669 5178.52 554.541 5190.15 555.413C5168.06 538.257 5149.15 523.426 5130.25 508.887C5159.33 514.412 5187.25 519.646 5214.87 524.589C5214.87 523.426 5214.87 522.554 5214.87 521.391C5188.99 503.943 5163.11 486.205 5137.23 468.757C5138.1 467.594 5138.98 466.431 5139.56 465.558C5156.13 468.176 5172.71 470.793 5189.28 473.41C5161.66 455.381 5136.07 437.061 5116.3 409.435C5131.71 412.052 5145.37 414.67 5163.4 417.868C5143.34 398.967 5127.05 383.264 5110.77 367.852C5120.37 367.27 5127.93 369.888 5135.78 371.632C5143.92 373.377 5152.06 374.249 5159.04 375.122C5138.1 353.312 5117.46 331.503 5093.91 307.076C5111.64 309.403 5123.86 310.857 5138.1 312.601C5119.79 295.445 5103.5 280.033 5087.22 264.621C5087.8 263.457 5088.67 262.585 5089.25 261.422C5095.65 263.167 5102.34 265.202 5105.83 266.075C5095.94 249.499 5085.18 231.761 5074.71 214.313C5076.17 213.15 5077.62 211.987 5079.08 211.115C5083.15 213.15 5087.22 214.895 5091 216.64C5082.27 195.121 5073.84 173.893 5064.83 151.793C5056.1 173.602 5047.96 194.249 5039.53 215.477C5043.02 214.313 5046.8 213.15 5050.29 211.987C5051.74 213.15 5053.2 214.313 5054.36 215.477C5043.6 232.633 5033.13 249.79 5022.96 266.656C5027.9 265.202 5033.71 263.167 5039.82 261.422C5040.69 262.585 5041.27 263.748 5042.15 264.911C5026.15 280.033 5009.87 295.445 4991.26 312.892C5006.67 310.857 5018.88 309.112 5035.75 306.786C5012.49 332.666 4992.42 355.348 4974.98 374.831C4984.57 372.795 5000.86 369.306 5021.21 364.944C5002.02 383.264 4985.74 399.258 4965.96 418.159C4983.99 414.96 4997.66 412.343 5011.32 409.726C5012.2 411.18 5013.36 412.634 5014.23 414.088C4989.52 433.862 4964.8 453.345 4940.08 473.119C4956.37 470.502 4973.23 467.885 4989.81 465.558C4990.68 466.722 4991.26 467.885 4992.13 469.048C4966.54 486.205 4940.96 503.652 4915.08 520.809C4915.37 521.972 4915.66 523.135 4915.95 524.589C4943.57 519.064 4971.49 513.83 5001.15 508.014C4979.63 524.299 4958.98 540.001 4937.17 556.286C4948.52 554.832 4958.4 553.378 4968.58 552.215C4969.45 553.959 4970.03 555.995 4970.91 557.74C4939.5 575.478 4907.81 592.926 4873.49 612.409H4925.54C4925.83 613.572 4925.83 614.735 4926.12 615.898C4920.6 619.679 4915.08 623.75 4909.26 627.53C4909.55 628.693 4910.13 629.856 4910.42 631.02C4933.39 624.04 4956.37 617.352 4980.5 610.082C4961.6 638.58 4934.85 655.155 4903.15 670.277C4913.04 670.858 4919.44 671.44 4925.83 671.731C4926.13 673.184 4926.12 674.348 4926.42 675.802C4919.44 679.873 4912.46 684.235 4905.77 688.306C4874.37 687.142 4842.96 685.398 4811.56 683.944" fill="#61936F"/>
</svg>
